solid AssimpScene
 facet normal 1 0 0
  outer loop
  vertex 75 120 29.5
  vertex 75 0 29.5
  vertex 75 0 23.5
  endloop
 endfacet

 facet normal 1 0 0
  outer loop
  vertex 75 120 29.5
  vertex 75 0 23.5
  vertex 75 120 23.5
  endloop
 endfacet

 facet normal 0 0 1
  outer loop
  vertex 69 120 29.5
  vertex 75 0 29.5
  vertex 75 120 29.5
  endloop
 endfacet

 facet normal 0 -1 0
  outer loop
  vertex 69 0 29.5
  vertex 75 0 23.5
  vertex 75 0 29.5
  endloop
 endfacet

 facet normal 0 1 0
  outer loop
  vertex 69 120 23.5
  vertex 75 120 29.5
  vertex 75 120 23.5
  endloop
 endfacet

 facet normal 0 0 -1
  outer loop
  vertex 74.5 32 23.5
  vertex 75 120 23.5
  vertex 75 0 23.5
  endloop
 endfacet

 facet normal 0 1 0
  outer loop
  vertex 69 120 23.5
  vertex 69 120 29.5
  vertex 75 120 29.5
  endloop
 endfacet

 facet normal 0 0 1
  outer loop
  vertex 69 120 29.5
  vertex 69 0 29.5
  vertex 75 0 29.5
  endloop
 endfacet

 facet normal 0 -1 0
  outer loop
  vertex 69 0 29.5
  vertex 69 0 23.5
  vertex 75 0 23.5
  endloop
 endfacet

 facet normal 0 0 -1
  outer loop
  vertex 74.49649810791016 110.0000991821289 23.5
  vertex 75 120 23.5
  vertex 74.5 110.0000991821289 23.5
  endloop
 endfacet

 facet normal 0 0 -1
  outer loop
  vertex 69.48359680175781 110.0000991821289 23.5
  vertex 69 120 23.5
  vertex 74.49649810791016 110.0000991821289 23.5
  endloop
 endfacet

 facet normal 0 0 -1
  outer loop
  vertex 74.49649810791016 110.0000991821289 23.5
  vertex 69 120 23.5
  vertex 75 120 23.5
  endloop
 endfacet

 facet normal 0 0 -1
  outer loop
  vertex 74.5 17 23.5
  vertex 74.5 32 23.5
  vertex 75 0 23.5
  endloop
 endfacet

 facet normal 0 0 -1
  outer loop
  vertex 75 120 23.5
  vertex 74.5 32 23.5
  vertex 74.5 44 23.5
  endloop
 endfacet

 facet normal -1 0 0
  outer loop
  vertex 69 120 23.5
  vertex 69 0 29.5
  vertex 69 120 29.5
  endloop
 endfacet

 facet normal -1 0 0
  outer loop
  vertex 69 17 23.5
  vertex 69 0 23.5
  vertex 69 0 29.5
  endloop
 endfacet

 facet normal 0 0 -1
  outer loop
  vertex 69.84999847412109 17 23.5
  vertex 75 0 23.5
  vertex 69 0 23.5
  endloop
 endfacet

 facet normal 0 0 -1
  outer loop
  vertex 69.18180084228516 110.0000991821289 23.5
  vertex 69 120 23.5
  vertex 69.48359680175781 110.0000991821289 23.5
  endloop
 endfacet

 facet normal 0 0 -1
  outer loop
  vertex 74.5 109.9996948242188 23.5
  vertex 74.5 110.0000991821289 23.5
  vertex 75 120 23.5
  endloop
 endfacet

 facet normal 0 0 -1
  outer loop
  vertex 74.49649810791016 59 23.5
  vertex 73.75 95 23.5
  vertex 74.5 95 23.5
  endloop
 endfacet

 facet normal 0 0 -1
  outer loop
  vertex 74.49649810791016 59 23.5
  vertex 71.94999694824219 59 23.5
  vertex 73.75 95 23.5
  endloop
 endfacet

 facet normal 0 0 -1
  outer loop
  vertex 74.5 109.9996948242188 23.5
  vertex 75 120 23.5
  vertex 74.5 95 23.5
  endloop
 endfacet

 facet normal 0 0 -1
  outer loop
  vertex 75 120 23.5
  vertex 74.49649810791016 59 23.5
  vertex 74.5 95 23.5
  endloop
 endfacet

 facet normal 0 0 -1
  outer loop
  vertex 69.84999847412109 17 23.5
  vertex 74.5 17 23.5
  vertex 75 0 23.5
  endloop
 endfacet

 facet normal 1 0 0
  outer loop
  vertex 74.5 32 23.5
  vertex 74.5 17 23.5
  vertex 74.5 17 20.5
  endloop
 endfacet

 facet normal 0 0 -1
  outer loop
  vertex 74.5 58.99969863891602 23.5
  vertex 75 120 23.5
  vertex 74.5 44 23.5
  endloop
 endfacet

 facet normal 0 0 -1
  outer loop
  vertex 74.5 32 23.5
  vertex 71.19999694824219 44 23.5
  vertex 74.5 44 23.5
  endloop
 endfacet

 facet normal -1 0 0
  outer loop
  vertex 69 110.0000991821289 23.50009918212891
  vertex 69 120 23.5
  vertex 69 110.0000991821289 23.5
  endloop
 endfacet

 facet normal -1 0 0
  outer loop
  vertex 69 0 29.5
  vertex 69 120 23.5
  vertex 69 110.0000991821289 23.50009918212891
  endloop
 endfacet

 facet normal -1 0 0
  outer loop
  vertex 69 95.55369567871094 23.50009918212891
  vertex 69 0 29.5
  vertex 69 110.0000991821289 23.50009918212891
  endloop
 endfacet

 facet normal -1 0 0
  outer loop
  vertex 69 95 23.50009918212891
  vertex 69 0 29.5
  vertex 69 95.55369567871094 23.50009918212891
  endloop
 endfacet

 facet normal -1 0 0
  outer loop
  vertex 69 59 23.50009918212891
  vertex 69 0 29.5
  vertex 69 95 23.50009918212891
  endloop
 endfacet

 facet normal -1 0 0
  outer loop
  vertex 69 17.5536994934082 23.5
  vertex 69 17 23.5
  vertex 69 0 29.5
  endloop
 endfacet

 facet normal 0 0 -1
  outer loop
  vertex 69.84999847412109 17 23.5
  vertex 69 0 23.5
  vertex 69 17 23.5
  endloop
 endfacet

 facet normal 0 0 -1
  outer loop
  vertex 69 120 23.5
  vertex 69.18180084228516 110.0000991821289 23.5
  vertex 69 110.0000991821289 23.5
  endloop
 endfacet

 facet normal 0 1 0
  outer loop
  vertex 74.49649810791016 59 23.5
  vertex -74.5 59 20.50009918212891
  vertex 71.94999694824219 59 23.5
  endloop
 endfacet

 facet normal 0 0 -1
  outer loop
  vertex 73.75 95 23.5
  vertex 71.94999694824219 59 23.5
  vertex 70.20899963378906 95 23.5
  endloop
 endfacet

 facet normal 0 0 -1
  outer loop
  vertex 74.49649810791016 59 23.5
  vertex 75 120 23.5
  vertex 74.5 59 23.5
  endloop
 endfacet

 facet normal 0 -1 0
  outer loop
  vertex 69.84999847412109 17 23.5
  vertex 74.5 17 20.5
  vertex 74.5 17 23.5
  endloop
 endfacet

 facet normal 1 0 0
  outer loop
  vertex 74.5 32 23.5
  vertex 74.5 17 20.5
  vertex 74.5 32 20.5
  endloop
 endfacet

 facet normal 1 0 0
  outer loop
  vertex 74.5 44 23.5
  vertex 74.5 44 20.50009918212891
  vertex 74.5 58.99969863891602 23.5
  endloop
 endfacet

 facet normal 0 0 -1
  outer loop
  vertex 74.5 59 23.5
  vertex 75 120 23.5
  vertex 74.5 58.99969863891602 23.5
  endloop
 endfacet

 facet normal 0 0 -1
  outer loop
  vertex 74.5 32 23.5
  vertex 70.59999847412109 32 23.5
  vertex 71.19999694824219 44 23.5
  endloop
 endfacet

 facet normal 0 -1 0
  outer loop
  vertex 71.19999694824219 44 23.5
  vertex 74.5 44 20.50009918212891
  vertex 74.5 44 23.5
  endloop
 endfacet

 facet normal -1 0 0
  outer loop
  vertex 69 44.5536994934082 23.50009918212891
  vertex 69 0 29.5
  vertex 69 59 23.50009918212891
  endloop
 endfacet

 facet normal -1 0 0
  outer loop
  vertex 69 95 23.50009918212891
  vertex 69 59 23.5
  vertex 69 59 23.50009918212891
  endloop
 endfacet

 facet normal -1 0 0
  outer loop
  vertex 69 95 23.50009918212891
  vertex 69 95 23.5
  vertex 69 59 23.5
  endloop
 endfacet

 facet normal -1 0 0
  outer loop
  vertex 69 32 23.5
  vertex 69 17.5536994934082 23.5
  vertex 69 0 29.5
  endloop
 endfacet

 facet normal 0 0 1
  outer loop
  vertex 69 17 23.5
  vertex 69 17.5536994934082 23.5
  vertex 59.52059936523438 17.5171012878418 23.5
  endloop
 endfacet

 facet normal 0 -1 0
  outer loop
  vertex 69 17 23.5
  vertex 74.5 17 20.5
  vertex 69.84999847412109 17 23.5
  endloop
 endfacet

 facet normal 0 1 0
  outer loop
  vertex 74.49649810791016 59 23.5
  vertex 74.5 59 20.50009918212891
  vertex -74.5 59 20.50009918212891
  endloop
 endfacet

 facet normal 0 1 0
  outer loop
  vertex 71.94999694824219 59 23.5
  vertex -74.5 59 20.50009918212891
  vertex 70.10910034179688 59 23.5
  endloop
 endfacet

 facet normal 0 0 -1
  outer loop
  vertex 70.10910034179688 59 23.5
  vertex 69.45449829101562 95 23.5
  vertex 70.20899963378906 95 23.5
  endloop
 endfacet

 facet normal 0 0 -1
  outer loop
  vertex 71.94999694824219 59 23.5
  vertex 70.10910034179688 59 23.5
  vertex 70.20899963378906 95 23.5
  endloop
 endfacet

 facet normal 0 1 0
  outer loop
  vertex 74.49649810791016 59 23.5
  vertex 74.5 59 23.5
  vertex 74.5 59 20.50009918212891
  endloop
 endfacet

 facet normal 0 1 0
  outer loop
  vertex -74.5 32 20.5
  vertex 74.5 32 23.5
  vertex 74.5 32 20.5
  endloop
 endfacet

 facet normal 0 0 -1
  outer loop
  vertex 74.5 32 20.5
  vertex 74.5 17 20.5
  vertex -74.5 17 20.5
  endloop
 endfacet

 facet normal 1 0 0
  outer loop
  vertex 74.5 58.99969863891602 23.5
  vertex 74.5 44 20.50009918212891
  vertex 74.5 59 20.50009918212891
  endloop
 endfacet

 facet normal 1 0 0
  outer loop
  vertex 74.5 59 23.5
  vertex 74.5 58.99969863891602 23.5
  vertex 74.5 59 20.50009918212891
  endloop
 endfacet

 facet normal 0 1 0
  outer loop
  vertex 74.5 32 23.5
  vertex -74.5 32 20.5
  vertex 70.59999847412109 32 23.5
  endloop
 endfacet

 facet normal 0 0 -1
  outer loop
  vertex 71.19999694824219 44 23.5
  vertex 70.59999847412109 32 23.5
  vertex 70.38179779052734 44 23.5
  endloop
 endfacet

 facet normal 0 -1 0
  outer loop
  vertex 70.38179779052734 44 23.5
  vertex 74.5 44 20.50009918212891
  vertex 71.19999694824219 44 23.5
  endloop
 endfacet

 facet normal 0 0 1
  outer loop
  vertex 38.56890106201172 47.6171989440918 23.50009918212891
  vertex 69 44.5536994934082 23.50009918212891
  vertex 69 59 23.50009918212891
  endloop
 endfacet

 facet normal -1 0 0
  outer loop
  vertex 69 44 23.50009918212891
  vertex 69 0 29.5
  vertex 69 44.5536994934082 23.50009918212891
  endloop
 endfacet

 facet normal 0 0 -1
  outer loop
  vertex 69.45449829101562 95 23.5
  vertex 70.10910034179688 59 23.5
  vertex 69 59 23.5
  endloop
 endfacet

 facet normal 0 0 -1
  outer loop
  vertex 69 95 23.5
  vertex 69.45449829101562 95 23.5
  vertex 69 59 23.5
  endloop
 endfacet

 facet normal 0 1 0
  outer loop
  vertex 69 59 23.50009918212891
  vertex 69 59 23.5
  vertex 20.38459968566895 59 23.5
  endloop
 endfacet

 facet normal -1 0 0
  outer loop
  vertex 69 32 23.5
  vertex 69 0 29.5
  vertex 69 44 23.50009918212891
  endloop
 endfacet

 facet normal 0 0 1
  outer loop
  vertex 67.15950012207031 29.72050094604492 23.5
  vertex 69 17.5536994934082 23.5
  vertex 69 32 23.5
  endloop
 endfacet

 facet normal 0 0 1
  outer loop
  vertex 59.1968994140625 17 23.5
  vertex 69 17 23.5
  vertex 59.52059936523438 17.5171012878418 23.5
  endloop
 endfacet

 facet normal 0 0 1
  outer loop
  vertex 69 17.5536994934082 23.5
  vertex 60.10400009155273 18.44929885864258 23.5
  vertex 59.52059936523438 17.5171012878418 23.5
  endloop
 endfacet

 facet normal 0 -1 0
  outer loop
  vertex 59.1968994140625 17 23.5
  vertex 74.5 17 20.5
  vertex 69 17 23.5
  endloop
 endfacet

 facet normal 0 0 -1
  outer loop
  vertex 74.5 59 20.50009918212891
  vertex -74.5 44 20.50009918212891
  vertex -74.5 59 20.50009918212891
  endloop
 endfacet

 facet normal 0 1 0
  outer loop
  vertex 70.10910034179688 59 23.5
  vertex -74.5 59 20.50009918212891
  vertex 69 59 23.5
  endloop
 endfacet

 facet normal 0 0 -1
  outer loop
  vertex 74.5 32 20.5
  vertex -74.5 17 20.5
  vertex -74.5 32 20.5
  endloop
 endfacet

 facet normal 0 -1 0
  outer loop
  vertex -74.5 17 23.5
  vertex -74.5 17 20.5
  vertex 74.5 17 20.5
  endloop
 endfacet

 facet normal 0 0 -1
  outer loop
  vertex 74.5 59 20.50009918212891
  vertex 74.5 44 20.50009918212891
  vertex -74.5 44 20.50009918212891
  endloop
 endfacet

 facet normal 0 1 0
  outer loop
  vertex 70.59999847412109 32 23.5
  vertex -74.5 32 20.5
  vertex 69 32 23.5
  endloop
 endfacet

 facet normal 0 0 -1
  outer loop
  vertex 70.38179779052734 44 23.5
  vertex 70.59999847412109 32 23.5
  vertex 69 32 23.5
  endloop
 endfacet

 facet normal 0 -1 0
  outer loop
  vertex 69 44 23.5
  vertex 74.5 44 20.50009918212891
  vertex 70.38179779052734 44 23.5
  endloop
 endfacet

 facet normal 0 0 1
  outer loop
  vertex 20.38459968566895 59 23.50009918212891
  vertex 38.56890106201172 47.6171989440918 23.50009918212891
  vertex 69 59 23.50009918212891
  endloop
 endfacet

 facet normal 0 0 1
  outer loop
  vertex 38.56890106201172 47.6171989440918 23.50009918212891
  vertex 44.34759902954102 44 23.50009918212891
  vertex 69 44.5536994934082 23.50009918212891
  endloop
 endfacet

 facet normal 0 0 1
  outer loop
  vertex 44.34759902954102 44 23.50009918212891
  vertex 69 44 23.50009918212891
  vertex 69 44.5536994934082 23.50009918212891
  endloop
 endfacet

 facet normal 0 1 0
  outer loop
  vertex 69 59 23.50009918212891
  vertex 20.38459968566895 59 23.5
  vertex 20.38459968566895 59 23.50009918212891
  endloop
 endfacet

 facet normal 0 1 0
  outer loop
  vertex 69 59 23.5
  vertex -74.5 59 20.50009918212891
  vertex 20.38459968566895 59 23.5
  endloop
 endfacet

 facet normal -1 0 0
  outer loop
  vertex 69 44 23.5
  vertex 69 32 23.5
  vertex 69 44 23.50009918212891
  endloop
 endfacet

 facet normal 0 0 1
  outer loop
  vertex 69 32 23.5
  vertex 63.51779937744141 32 23.5
  vertex 67.15950012207031 29.72050094604492 23.5
  endloop
 endfacet

 facet normal 0 0 1
  outer loop
  vertex 60.10400009155273 18.44929885864258 23.5
  vertex 69 17.5536994934082 23.5
  vertex 67.15950012207031 29.72050094604492 23.5
  endloop
 endfacet

 facet normal 0.8476211428642273 -0.5306019186973572 8.43927773530595e-05
  outer loop
  vertex 67.15950012207031 29.72050094604492 26.5
  vertex 59.1968994140625 17 23.5
  vertex 59.52059936523438 17.5171012878418 23.5
  endloop
 endfacet

 facet normal 0.8476804494857788 -0.5305070281028748 -0.0004523959942162037
  outer loop
  vertex 60.10400009155273 18.44929885864258 23.5
  vertex 67.15950012207031 29.72050094604492 26.5
  vertex 59.52059936523438 17.5171012878418 23.5
  endloop
 endfacet

 facet normal 0 -1 0
  outer loop
  vertex -69 17 23.5
  vertex 74.5 17 20.5
  vertex 59.1968994140625 17 23.5
  endloop
 endfacet

 facet normal -1 0 0
  outer loop
  vertex -74.5 44.00040054321289 23.5
  vertex -74.5 59 20.50009918212891
  vertex -74.5 44 20.50009918212891
  endloop
 endfacet

 facet normal -1 0 0
  outer loop
  vertex -74.5 32 20.5
  vertex -74.5 17 20.5
  vertex -74.5 17 23.5
  endloop
 endfacet

 facet normal 0 -1 0
  outer loop
  vertex -74.5 17 23.5
  vertex 74.5 17 20.5
  vertex -74.15000152587891 17 23.5
  endloop
 endfacet

 facet normal 0 -1 0
  outer loop
  vertex -74.49649810791016 44 23.5
  vertex -74.5 44 20.50009918212891
  vertex 74.5 44 20.50009918212891
  endloop
 endfacet

 facet normal 0 1 0
  outer loop
  vertex 63.51779937744141 32 23.5
  vertex 69 32 23.5
  vertex -74.5 32 20.5
  endloop
 endfacet

 facet normal 0 0 -1
  outer loop
  vertex 69 44 23.5
  vertex 70.38179779052734 44 23.5
  vertex 69 32 23.5
  endloop
 endfacet

 facet normal 0 -1 0
  outer loop
  vertex 69 44 23.5
  vertex 44.34759902954102 44 23.5
  vertex 74.5 44 20.50009918212891
  endloop
 endfacet

 facet normal 0.53058922290802 0.847629189491272 -3.273172478657216e-05
  outer loop
  vertex 38.56890106201172 47.6171989440918 23.50009918212891
  vertex 20.38459968566895 59 23.50009918212891
  vertex 67.15950012207031 29.72050094604492 26.5
  endloop
 endfacet

 facet normal 0.5305804014205933 0.8476346731185913 8.340949716512114e-05
  outer loop
  vertex 44.34759902954102 44 23.50009918212891
  vertex 38.56890106201172 47.6171989440918 23.50009918212891
  vertex 67.15950012207031 29.72050094604492 26.5
  endloop
 endfacet

 facet normal 0 -1 0
  outer loop
  vertex 69 44 23.50009918212891
  vertex 44.34759902954102 44 23.50009918212891
  vertex 44.34759902954102 44 23.5
  endloop
 endfacet

 facet normal 0.5305883288383484 0.8476296663284302 0
  outer loop
  vertex -37.12639999389648 95 23.5
  vertex 20.38459968566895 59 23.50009918212891
  vertex 20.38459968566895 59 23.5
  endloop
 endfacet

 facet normal 0 1 0
  outer loop
  vertex 20.38459968566895 59 23.5
  vertex -74.5 59 20.50009918212891
  vertex 19.75460052490234 59 23.5
  endloop
 endfacet

 facet normal 0 -1 0
  outer loop
  vertex 69 44 23.50009918212891
  vertex 44.34759902954102 44 23.5
  vertex 69 44 23.5
  endloop
 endfacet

 facet normal 0.5305739045143127 0.8476386070251465 0
  outer loop
  vertex 63.51779937744141 32 23.5
  vertex 67.15950012207031 29.72050094604492 26.5
  vertex 67.15950012207031 29.72050094604492 23.5
  endloop
 endfacet

 facet normal 0.8476263880729675 -0.5305935740470886 0
  outer loop
  vertex 60.10400009155273 18.44929885864258 23.5
  vertex 67.15950012207031 29.72050094604492 23.5
  vertex 67.15950012207031 29.72050094604492 26.5
  endloop
 endfacet

 facet normal 0.8476301431655884 -0.5305876135826111 0
  outer loop
  vertex 67.15950012207031 29.72050094604492 26.5
  vertex 59.1968994140625 17 26.5
  vertex 59.1968994140625 17 23.5
  endloop
 endfacet

 facet normal 0 0 1
  outer loop
  vertex -69 17 23.5
  vertex 59.1968994140625 17 23.5
  vertex 58.37779998779297 17.51269912719727 23.5
  endloop
 endfacet

 facet normal 0 -1 0
  outer loop
  vertex -74.15000152587891 17 23.5
  vertex 74.5 17 20.5
  vertex -69 17 23.5
  endloop
 endfacet

 facet normal -1 0 0
  outer loop
  vertex -74.5 44 23.5
  vertex -74.5 44.00040054321289 23.5
  vertex -74.5 44 20.50009918212891
  endloop
 endfacet

 facet normal -1 0 0
  outer loop
  vertex -74.5 59 23.5
  vertex -74.5 59 20.50009918212891
  vertex -74.5 44.00040054321289 23.5
  endloop
 endfacet

 facet normal -1 0 0
  outer loop
  vertex -74.5 32 20.5
  vertex -74.5 17 23.5
  vertex -74.5 32 23.5
  endloop
 endfacet

 facet normal 0 0 -1
  outer loop
  vertex -74.15000152587891 17 23.5
  vertex -75 0 23.5
  vertex -74.5 17 23.5
  endloop
 endfacet

 facet normal 0 -1 0
  outer loop
  vertex -73.61820220947266 44 23.5
  vertex -74.49649810791016 44 23.5
  vertex 74.5 44 20.50009918212891
  endloop
 endfacet

 facet normal 0 -1 0
  outer loop
  vertex -74.49649810791016 44 23.5
  vertex -74.5 44 23.5
  vertex -74.5 44 20.50009918212891
  endloop
 endfacet

 facet normal 0 1 0
  outer loop
  vertex 62.54650115966797 32 23.5
  vertex 63.51779937744141 32 23.5
  vertex -74.5 32 20.5
  endloop
 endfacet

 facet normal 0 -1 0
  outer loop
  vertex 44.34759902954102 44 23.5
  vertex 43.52790069580078 44 23.5
  vertex 74.5 44 20.50009918212891
  endloop
 endfacet

 facet normal 0.5305116176605225 0.8476673364639282 0.004198702983558178
  outer loop
  vertex -58.5192985534668 108.3912963867188 23.50009918212891
  vertex -59.19390106201172 108.8134994506836 23.50009918212891
  vertex 67.15950012207031 29.72050094604492 26.5
  endloop
 endfacet

 facet normal 0.5305883288383484 0.8476296663284302 0
  outer loop
  vertex 20.38459968566895 59 23.50009918212891
  vertex -37.12639999389648 95 23.5
  vertex -37.12639999389648 95 23.50009918212891
  endloop
 endfacet

 facet normal 0.5305883288383484 0.8476296663284302 -1.550057822896633e-05
  outer loop
  vertex 67.15950012207031 29.72050094604492 26.5
  vertex 20.38459968566895 59 23.50009918212891
  vertex -37.12639999389648 95 23.50009918212891
  endloop
 endfacet

 facet normal 0.5305896997451782 0.8476288318634033 -8.048741437960416e-05
  outer loop
  vertex -58.5192985534668 108.3912963867188 23.50009918212891
  vertex 67.15950012207031 29.72050094604492 26.5
  vertex -37.12639999389648 95 23.50009918212891
  endloop
 endfacet

 facet normal 0.5305910110473633 0.8476279973983765 -2.881943328247871e-05
  outer loop
  vertex 63.51779937744141 32 23.5
  vertex 44.34759902954102 44 23.50009918212891
  vertex 67.15950012207031 29.72050094604492 26.5
  endloop
 endfacet

 facet normal 0.5305910110473633 0.8476279973983765 0
  outer loop
  vertex 44.34759902954102 44 23.5
  vertex 44.34759902954102 44 23.50009918212891
  vertex 63.51779937744141 32 23.5
  endloop
 endfacet

 facet normal 0 0 -1
  outer loop
  vertex -37.12639999389648 95 23.5
  vertex 20.38459968566895 59 23.5
  vertex -20.85420036315918 84.62260437011719 23.5
  endloop
 endfacet

 facet normal 0 0 -1
  outer loop
  vertex -37.30110168457031 95 23.5
  vertex -37.12639999389648 95 23.5
  vertex -20.85420036315918 84.62260437011719 23.5
  endloop
 endfacet

 facet normal 0 0 -1
  outer loop
  vertex 20.38459968566895 59 23.5
  vertex 19.75460052490234 59 23.5
  vertex 2.91919994354248 69.62259674072266 23.5
  endloop
 endfacet

 facet normal 0 1 0
  outer loop
  vertex 19.75460052490234 59 23.5
  vertex -74.5 59 20.50009918212891
  vertex 7.907700061798096 59 23.5
  endloop
 endfacet

 facet normal 0 0 1
  outer loop
  vertex -59.19680023193359 108.8153991699219 26.5
  vertex 59.1968994140625 17 26.5
  vertex 67.15950012207031 29.72050094604492 26.5
  endloop
 endfacet

 facet normal -0.5305880308151245 -0.8476299047470093 0
  outer loop
  vertex -67.15950012207031 96.09489440917969 26.5
  vertex 59.1968994140625 17 23.5
  vertex 59.1968994140625 17 26.5
  endloop
 endfacet

 facet normal 0 0 1
  outer loop
  vertex -69 17.02119827270508 23.5
  vertex -69 17 23.5
  vertex 58.37779998779297 17.51269912719727 23.5
  endloop
 endfacet

 facet normal -0.5305653810501099 -0.8476430177688599 0.001300457632169127
  outer loop
  vertex 58.37779998779297 17.51269912719727 23.5
  vertex 59.1968994140625 17 23.5
  vertex -67.15950012207031 96.09489440917969 26.5
  endloop
 endfacet

 facet normal 0 0 -1
  outer loop
  vertex -74.15000152587891 17 23.5
  vertex -69 17 23.5
  vertex -69 0 23.5
  endloop
 endfacet

 facet normal 0 0 -1
  outer loop
  vertex -74.5 44.00040054321289 23.5
  vertex -74.5 44 23.5
  vertex -75 120 23.5
  endloop
 endfacet

 facet normal 0 0 -1
  outer loop
  vertex -74.5 44.00040054321289 23.5
  vertex -75 120 23.5
  vertex -74.5 59 23.5
  endloop
 endfacet

 facet normal 0 1 0
  outer loop
  vertex -74.5 59 20.50009918212891
  vertex -74.5 59 23.5
  vertex -73.89089965820312 59 23.5
  endloop
 endfacet

 facet normal 0 1 0
  outer loop
  vertex -74.5 32 20.5
  vertex -74.5 32 23.5
  vertex -73.40000152587891 32 23.5
  endloop
 endfacet

 facet normal 0 0 -1
  outer loop
  vertex -74.5 17 23.5
  vertex -75 0 23.5
  vertex -74.5 32 23.5
  endloop
 endfacet

 facet normal 0 0 -1
  outer loop
  vertex -74.15000152587891 17 23.5
  vertex -69 0 23.5
  vertex -75 0 23.5
  endloop
 endfacet

 facet normal 0 -1 0
  outer loop
  vertex -72.80000305175781 44 23.5
  vertex -73.61820220947266 44 23.5
  vertex 74.5 44 20.50009918212891
  endloop
 endfacet

 facet normal 0 0 -1
  outer loop
  vertex -74.49649810791016 44 23.5
  vertex -73.61820220947266 44 23.5
  vertex -74.5 32 23.5
  endloop
 endfacet

 facet normal 0 0 -1
  outer loop
  vertex -74.49649810791016 44 23.5
  vertex -74.5 32 23.5
  vertex -74.5 44 23.5
  endloop
 endfacet

 facet normal 0 1 0
  outer loop
  vertex 62.54650115966797 32 23.5
  vertex -74.5 32 20.5
  vertex 35.2338981628418 32 23.5
  endloop
 endfacet

 facet normal 0 0 -1
  outer loop
  vertex 44.34759902954102 44 23.5
  vertex 63.51779937744141 32 23.5
  vertex 62.54650115966797 32 23.5
  endloop
 endfacet

 facet normal 0 0 -1
  outer loop
  vertex 44.34759902954102 44 23.5
  vertex 62.54650115966797 32 23.5
  vertex 43.52790069580078 44 23.5
  endloop
 endfacet

 facet normal 0 -1 0
  outer loop
  vertex 43.52790069580078 44 23.5
  vertex 38.26269912719727 44 23.5
  vertex 74.5 44 20.50009918212891
  endloop
 endfacet

 facet normal 0.5305882692337036 0.8476296663284302 -2.399832192168105e-05
  outer loop
  vertex -59.19390106201172 108.8134994506836 23.50009918212891
  vertex -59.19680023193359 108.8153991699219 26.5
  vertex 67.15950012207031 29.72050094604492 26.5
  endloop
 endfacet

 facet normal 0.5480793714523315 0.8364263772964478 0
  outer loop
  vertex -59.19390106201172 108.8134994506836 23.50009918212891
  vertex -59.19680023193359 108.8153991699219 23.50009918212891
  vertex -59.19680023193359 108.8153991699219 26.5
  endloop
 endfacet

 facet normal 0 0 -1
  outer loop
  vertex 20.38459968566895 59 23.5
  vertex 2.91919994354248 69.62259674072266 23.5
  vertex -20.85420036315918 84.62260437011719 23.5
  endloop
 endfacet

 facet normal 0 0 -1
  outer loop
  vertex -37.30110168457031 95 23.5
  vertex -20.85420036315918 84.62260437011719 23.5
  vertex -26.60759925842285 84.62260437011719 23.5
  endloop
 endfacet

 facet normal 0 0 -1
  outer loop
  vertex -40.58660125732422 95 23.5
  vertex -37.30110168457031 95 23.5
  vertex -26.60759925842285 84.62260437011719 23.5
  endloop
 endfacet

 facet normal 0 0 -1
  outer loop
  vertex 2.91919994354248 69.62259674072266 23.5
  vertex 19.75460052490234 59 23.5
  vertex 7.907700061798096 59 23.5
  endloop
 endfacet

 facet normal 0 1 0
  outer loop
  vertex 7.907700061798096 59 23.5
  vertex -74.5 59 20.50009918212891
  vertex -7.899400234222412 59 23.5
  endloop
 endfacet

 facet normal 0 0 1
  outer loop
  vertex -59.19680023193359 108.8153991699219 26.5
  vertex -67.15950012207031 96.09489440917969 26.5
  vertex 59.1968994140625 17 26.5
  endloop
 endfacet

 facet normal 0 0 1
  outer loop
  vertex -69 17.02119827270508 23.5
  vertex 58.37779998779297 17.51269912719727 23.5
  vertex 56.26409912109375 18.83580017089844 23.5
  endloop
 endfacet

 facet normal 1 0 0
  outer loop
  vertex -69 17.02119827270508 23.5
  vertex -69 120 29.5
  vertex -69 17 23.5
  endloop
 endfacet

 facet normal -0.5305865406990051 -0.8476307392120361 9.751926700118929e-05
  outer loop
  vertex 56.26409912109375 18.83580017089844 23.5
  vertex 58.37779998779297 17.51269912719727 23.5
  vertex -67.15950012207031 96.09489440917969 26.5
  endloop
 endfacet

 facet normal 1 0 0
  outer loop
  vertex -69 120 29.5
  vertex -69 0 23.5
  vertex -69 17 23.5
  endloop
 endfacet

 facet normal 0 0 -1
  outer loop
  vertex -74.5 44 23.5
  vertex -74.5 32 23.5
  vertex -75 120 23.5
  endloop
 endfacet

 facet normal 0 0 -1
  outer loop
  vertex -75 120 23.5
  vertex -73.89089965820312 59 23.5
  vertex -74.5 59 23.5
  endloop
 endfacet

 facet normal 0 1 0
  outer loop
  vertex -72.05000305175781 59 23.5
  vertex -74.5 59 20.50009918212891
  vertex -73.89089965820312 59 23.5
  endloop
 endfacet

 facet normal 0 1 0
  outer loop
  vertex -69 32 23.5
  vertex -74.5 32 20.5
  vertex -73.40000152587891 32 23.5
  endloop
 endfacet

 facet normal 0 0 -1
  outer loop
  vertex -73.61820220947266 44 23.5
  vertex -73.40000152587891 32 23.5
  vertex -74.5 32 23.5
  endloop
 endfacet

 facet normal 0 0 -1
  outer loop
  vertex -75 0 23.5
  vertex -75 120 23.5
  vertex -74.5 32 23.5
  endloop
 endfacet

 facet normal 0 -1 0
  outer loop
  vertex -75 0 29.5
  vertex -75 0 23.5
  vertex -69 0 23.5
  endloop
 endfacet

 facet normal 0 -1 0
  outer loop
  vertex -69 44 23.5
  vertex -72.80000305175781 44 23.5
  vertex 74.5 44 20.50009918212891
  endloop
 endfacet

 facet normal 0 0 -1
  outer loop
  vertex -72.80000305175781 44 23.5
  vertex -73.40000152587891 32 23.5
  vertex -73.61820220947266 44 23.5
  endloop
 endfacet

 facet normal 0 0 -1
  outer loop
  vertex 62.54650115966797 32 23.5
  vertex 35.2338981628418 32 23.5
  vertex 38.26269912719727 44 23.5
  endloop
 endfacet

 facet normal 0 1 0
  outer loop
  vertex -69 32 23.5
  vertex 35.2338981628418 32 23.5
  vertex -74.5 32 20.5
  endloop
 endfacet

 facet normal 0 0 -1
  outer loop
  vertex 62.54650115966797 32 23.5
  vertex 38.26269912719727 44 23.5
  vertex 43.52790069580078 44 23.5
  endloop
 endfacet

 facet normal 0 -1 0
  outer loop
  vertex 38.26269912719727 44 23.5
  vertex 16.06360054016113 44 23.5
  vertex 74.5 44 20.50009918212891
  endloop
 endfacet

 facet normal -0.8476271629333496 0.5305923223495483 3.421144356252626e-06
  outer loop
  vertex -59.19699859619141 108.8151016235352 23.50009918212891
  vertex -67.15950012207031 96.09489440917969 26.5
  vertex -59.19680023193359 108.8153991699219 26.5
  endloop
 endfacet

 facet normal -0.8320502638816833 0.5547001957893372 0
  outer loop
  vertex -59.19680023193359 108.8153991699219 23.50009918212891
  vertex -59.19699859619141 108.8151016235352 23.50009918212891
  vertex -59.19680023193359 108.8153991699219 26.5
  endloop
 endfacet

 facet normal 0 0 -1
  outer loop
  vertex 2.91919994354248 69.62259674072266 23.5
  vertex -6.401500225067139 69.62259674072266 23.5
  vertex -20.85420036315918 84.62260437011719 23.5
  endloop
 endfacet

 facet normal 0 0 1
  outer loop
  vertex -26.60759925842285 84.62260437011719 23.5
  vertex 74.5 69.62259674072266 23.5
  vertex -20.85420036315918 84.62260437011719 23.5
  endloop
 endfacet

 facet normal 0 1 0
  outer loop
  vertex -20.85420036315918 84.62260437011719 23.5
  vertex -74.5 84.62260437011719 20.5
  vertex -26.60759925842285 84.62260437011719 23.5
  endloop
 endfacet

 facet normal 0 0 -1
  outer loop
  vertex -6.401500225067139 69.62259674072266 23.5
  vertex -26.60759925842285 84.62260437011719 23.5
  vertex -20.85420036315918 84.62260437011719 23.5
  endloop
 endfacet

 facet normal 0 0 -1
  outer loop
  vertex -40.58660125732422 95 23.5
  vertex -26.60759925842285 84.62260437011719 23.5
  vertex -63.28929901123047 95 23.5
  endloop
 endfacet

 facet normal 0 0 -1
  outer loop
  vertex 2.91919994354248 69.62259674072266 23.5
  vertex 7.907700061798096 59 23.5
  vertex -6.401500225067139 69.62259674072266 23.5
  endloop
 endfacet

 facet normal 0 0 -1
  outer loop
  vertex -64.94380187988281 95 23.5
  vertex 7.907700061798096 59 23.5
  vertex -7.899400234222412 59 23.5
  endloop
 endfacet

 facet normal 0 0 -1
  outer loop
  vertex -65.410400390625 95 23.5
  vertex -64.94380187988281 95 23.5
  vertex -7.899400234222412 59 23.5
  endloop
 endfacet

 facet normal 0 1 0
  outer loop
  vertex -7.899400234222412 59 23.5
  vertex -74.5 59 20.50009918212891
  vertex -69 59 23.5
  endloop
 endfacet

 facet normal 0 0 1
  outer loop
  vertex -69 17.07720184326172 23.5
  vertex -69 17.02119827270508 23.5
  vertex 56.26409912109375 18.83580017089844 23.5
  endloop
 endfacet

 facet normal 1 0 0
  outer loop
  vertex -69 17.02119827270508 23.5
  vertex -69 17.07720184326172 23.5
  vertex -69 120 29.5
  endloop
 endfacet

 facet normal -0.5305879712104797 -0.8476299643516541 1.926386357808951e-05
  outer loop
  vertex 56.26409912109375 18.83580017089844 23.5
  vertex -67.15950012207031 96.09489440917969 26.5
  vertex 35.2338981628418 32 23.5
  endloop
 endfacet

 facet normal 1 0 0
  outer loop
  vertex -69 120 29.5
  vertex -69 0 29.5
  vertex -69 0 23.5
  endloop
 endfacet

 facet normal 0 0 -1
  outer loop
  vertex -74.5 95.00039672851562 23.5
  vertex -75 120 23.5
  vertex -74.5 109.6609954833984 23.5
  endloop
 endfacet

 facet normal 0 0 -1
  outer loop
  vertex -74.5 95 23.5
  vertex -75 120 23.5
  vertex -74.5 95.00039672851562 23.5
  endloop
 endfacet

 facet normal 0 0 -1
  outer loop
  vertex -73.79100036621094 95 23.5
  vertex -73.89089965820312 59 23.5
  vertex -74.49649810791016 95 23.5
  endloop
 endfacet

 facet normal 0 0 -1
  outer loop
  vertex -73.89089965820312 59 23.5
  vertex -75 120 23.5
  vertex -74.5 95 23.5
  endloop
 endfacet

 facet normal 0 0 -1
  outer loop
  vertex -73.89089965820312 59 23.5
  vertex -74.5 95 23.5
  vertex -74.49649810791016 95 23.5
  endloop
 endfacet

 facet normal 0 0 -1
  outer loop
  vertex -72.05000305175781 59 23.5
  vertex -73.89089965820312 59 23.5
  vertex -73.79100036621094 95 23.5
  endloop
 endfacet

 facet normal 0 1 0
  outer loop
  vertex -69 59 23.5
  vertex -74.5 59 20.50009918212891
  vertex -72.05000305175781 59 23.5
  endloop
 endfacet

 facet normal 0 0 -1
  outer loop
  vertex -72.80000305175781 44 23.5
  vertex -69 32 23.5
  vertex -73.40000152587891 32 23.5
  endloop
 endfacet

 facet normal -1 0 0
  outer loop
  vertex -75 120 23.5
  vertex -75 0 23.5
  vertex -75 0 29.5
  endloop
 endfacet

 facet normal 0 -1 0
  outer loop
  vertex -75 0 29.5
  vertex -69 0 23.5
  vertex -69 0 29.5
  endloop
 endfacet

 facet normal 0 -1 0
  outer loop
  vertex 16.06360054016113 44 23.5
  vertex -69 44 23.5
  vertex 74.5 44 20.50009918212891
  endloop
 endfacet

 facet normal 0 0 -1
  outer loop
  vertex -72.80000305175781 44 23.5
  vertex -69 44 23.5
  vertex -69 32 23.5
  endloop
 endfacet

 facet normal 0 0 -1
  outer loop
  vertex 35.2338981628418 32 23.5
  vertex 16.06360054016113 44 23.5
  vertex 38.26269912719727 44 23.5
  endloop
 endfacet

 facet normal 0 0 1
  outer loop
  vertex -69 32 23.5
  vertex -69 31.4463005065918 23.5
  vertex 35.2338981628418 32 23.5
  endloop
 endfacet

 facet normal -0.8476158380508423 0.5306105017662048 0.0001104937036870979
  outer loop
  vertex -59.40639877319336 108.480598449707 23.50009918212891
  vertex -67.15950012207031 96.09489440917969 26.5
  vertex -59.19699859619141 108.8151016235352 23.50009918212891
  endloop
 endfacet

 facet normal -0.8476278185844421 0.5305912494659424 0
  outer loop
  vertex -67.15950012207031 96.09489440917969 23.50009918212891
  vertex -67.15950012207031 96.09489440917969 26.5
  vertex -59.40639877319336 108.480598449707 23.50009918212891
  endloop
 endfacet

 facet normal 0 -1 0
  outer loop
  vertex 2.91919994354248 69.62259674072266 23.5
  vertex -6.401500225067139 69.62259674072266 23.5
  vertex 74.5 69.62259674072266 20.5
  endloop
 endfacet

 facet normal 0 0 1
  outer loop
  vertex 2.91919994354248 69.62259674072266 23.5
  vertex -74.5 84.62260437011719 23.5
  vertex -6.401500225067139 69.62259674072266 23.5
  endloop
 endfacet

 facet normal 0 0 1
  outer loop
  vertex -74.5 84.62260437011719 23.5
  vertex 74.5 69.62259674072266 23.5
  vertex -26.60759925842285 84.62260437011719 23.5
  endloop
 endfacet

 facet normal 0 0 1
  outer loop
  vertex -20.85420036315918 84.62260437011719 23.5
  vertex 74.5 69.62259674072266 23.5
  vertex 74.5 84.62260437011719 23.5
  endloop
 endfacet

 facet normal 0 1 0
  outer loop
  vertex 74.5 84.62260437011719 23.5
  vertex -74.5 84.62260437011719 20.5
  vertex -20.85420036315918 84.62260437011719 23.5
  endloop
 endfacet

 facet normal 0 1 0
  outer loop
  vertex -74.5 84.62260437011719 20.5
  vertex -74.5 84.62260437011719 23.5
  vertex -26.60759925842285 84.62260437011719 23.5
  endloop
 endfacet

 facet normal 0 0 -1
  outer loop
  vertex -64.64659881591797 95 23.5
  vertex -26.60759925842285 84.62260437011719 23.5
  vertex -6.401500225067139 69.62259674072266 23.5
  endloop
 endfacet

 facet normal 0 0 -1
  outer loop
  vertex -64.64659881591797 95 23.5
  vertex -63.28929901123047 95 23.5
  vertex -26.60759925842285 84.62260437011719 23.5
  endloop
 endfacet

 facet normal 0 0 -1
  outer loop
  vertex -64.94380187988281 95 23.5
  vertex -6.401500225067139 69.62259674072266 23.5
  vertex 7.907700061798096 59 23.5
  endloop
 endfacet

 facet normal 0 0 -1
  outer loop
  vertex -64.94380187988281 95 23.5
  vertex -64.64659881591797 95 23.5
  vertex -6.401500225067139 69.62259674072266 23.5
  endloop
 endfacet

 facet normal -0.5305883288383484 -0.8476296663284302 0
  outer loop
  vertex -65.410400390625 95 23.5
  vertex -7.899400234222412 59 23.5
  vertex -7.899400234222412 59 23.50009918212891
  endloop
 endfacet

 facet normal 0 1 0
  outer loop
  vertex -7.899400234222412 59 23.50009918212891
  vertex -7.899400234222412 59 23.5
  vertex -69 59 23.5
  endloop
 endfacet

 facet normal 0 0 1
  outer loop
  vertex -69 17.07720184326172 23.5
  vertex 56.26409912109375 18.83580017089844 23.5
  vertex -69 31.4463005065918 23.5
  endloop
 endfacet

 facet normal 1 0 0
  outer loop
  vertex -69 17.07720184326172 23.5
  vertex -69 31.4463005065918 23.5
  vertex -69 120 29.5
  endloop
 endfacet

 facet normal 0 0 1
  outer loop
  vertex -69 31.4463005065918 23.5
  vertex 56.26409912109375 18.83580017089844 23.5
  vertex 35.2338981628418 32 23.5
  endloop
 endfacet

 facet normal -0.5305890440940857 -0.8476292490959167 -3.691747406264767e-05
  outer loop
  vertex 35.2338981628418 32 23.5
  vertex -67.15950012207031 96.09489440917969 26.5
  vertex 16.06360054016113 44 23.50009918212891
  endloop
 endfacet

 facet normal 0 0 1
  outer loop
  vertex -75 120 29.5
  vertex -69 0 29.5
  vertex -69 120 29.5
  endloop
 endfacet

 facet normal 0 0 -1
  outer loop
  vertex -74.5 110.0000991821289 23.5
  vertex -69 120 23.5
  vertex -69.5 110.0000991821289 23.5
  endloop
 endfacet

 facet normal 0 0 -1
  outer loop
  vertex -74.5 109.6609954833984 23.5
  vertex -75 120 23.5
  vertex -74.5 110.0000991821289 23.5
  endloop
 endfacet

 facet normal 0 0 -1
  outer loop
  vertex -74.5 110.0000991821289 23.5
  vertex -75 120 23.5
  vertex -69 120 23.5
  endloop
 endfacet

 facet normal 0 0 -1
  outer loop
  vertex -70.25 95 23.5
  vertex -72.05000305175781 59 23.5
  vertex -73.79100036621094 95 23.5
  endloop
 endfacet

 facet normal 0 0 -1
  outer loop
  vertex -70.25 95 23.5
  vertex -69 59 23.5
  vertex -72.05000305175781 59 23.5
  endloop
 endfacet

 facet normal 0 0 -1
  outer loop
  vertex -70.25 95 23.5
  vertex -69 95 23.5
  vertex -69 59 23.5
  endloop
 endfacet

 facet normal -1 0 0
  outer loop
  vertex -75 120 23.5
  vertex -75 0 29.5
  vertex -75 120 29.5
  endloop
 endfacet

 facet normal 0 0 1
  outer loop
  vertex -75 120 29.5
  vertex -75 0 29.5
  vertex -69 0 29.5
  endloop
 endfacet

 facet normal 0 -1 0
  outer loop
  vertex 16.06360054016113 44 23.5
  vertex 16.06360054016113 44 23.50009918212891
  vertex -69 44 23.5
  endloop
 endfacet

 facet normal 1 0 0
  outer loop
  vertex -69 32 23.5
  vertex -69 44 23.5
  vertex -69 44 23.50009918212891
  endloop
 endfacet

 facet normal -0.5305890440940857 -0.8476292490959167 0
  outer loop
  vertex 35.2338981628418 32 23.5
  vertex 16.06360054016113 44 23.50009918212891
  vertex 16.06360054016113 44 23.5
  endloop
 endfacet

 facet normal 1 0 0
  outer loop
  vertex -69 31.4463005065918 23.5
  vertex -69 32 23.5
  vertex -69 120 29.5
  endloop
 endfacet

 facet normal -0.530595064163208 -0.8476254940032959 0
  outer loop
  vertex -65.410400390625 95 23.50009918212891
  vertex -67.15950012207031 96.09489440917969 26.5
  vertex -67.15950012207031 96.09489440917969 23.50009918212891
  endloop
 endfacet

 facet normal -0.5305883288383484 -0.8476296663284302 5.412145583250094e-06
  outer loop
  vertex -7.899400234222412 59 23.50009918212891
  vertex -67.15950012207031 96.09489440917969 26.5
  vertex -65.410400390625 95 23.50009918212891
  endloop
 endfacet

 facet normal -0.5305883288383484 -0.8476296663284302 0
  outer loop
  vertex -65.410400390625 95 23.5
  vertex -7.899400234222412 59 23.50009918212891
  vertex -65.410400390625 95 23.50009918212891
  endloop
 endfacet

 facet normal 0 -1 0
  outer loop
  vertex 2.91919994354248 69.62259674072266 23.5
  vertex 74.5 69.62259674072266 20.5
  vertex 74.5 69.62259674072266 23.5
  endloop
 endfacet

 facet normal 0 -1 0
  outer loop
  vertex -6.401500225067139 69.62259674072266 23.5
  vertex -74.5 69.62259674072266 23.5
  vertex 74.5 69.62259674072266 20.5
  endloop
 endfacet

 facet normal 0 0 1
  outer loop
  vertex 74.5 69.62259674072266 23.5
  vertex -74.5 84.62260437011719 23.5
  vertex 2.91919994354248 69.62259674072266 23.5
  endloop
 endfacet

 facet normal 0 0 1
  outer loop
  vertex -74.5 84.62260437011719 23.5
  vertex -74.5 69.62259674072266 23.5
  vertex -6.401500225067139 69.62259674072266 23.5
  endloop
 endfacet

 facet normal 1 0 0
  outer loop
  vertex 74.5 84.62260437011719 23.5
  vertex 74.5 69.62259674072266 23.5
  vertex 74.5 69.62259674072266 20.5
  endloop
 endfacet

 facet normal 0 1 0
  outer loop
  vertex -74.5 84.62260437011719 20.5
  vertex 74.5 84.62260437011719 23.5
  vertex 74.5 84.62260437011719 20.5
  endloop
 endfacet

 facet normal -1 0 0
  outer loop
  vertex -74.5 84.62260437011719 20.5
  vertex -74.5 69.62259674072266 23.5
  vertex -74.5 84.62260437011719 23.5
  endloop
 endfacet

 facet normal 0 1 0
  outer loop
  vertex -7.899400234222412 59 23.50009918212891
  vertex -69 59 23.5
  vertex -69 59 23.50009918212891
  endloop
 endfacet

 facet normal -0.5305866003036499 -0.8476307392120361 5.905929356231354e-05
  outer loop
  vertex 16.06360054016113 44 23.50009918212891
  vertex -67.15950012207031 96.09489440917969 26.5
  vertex 4.864399909973145 51.01029968261719 23.50009918212891
  endloop
 endfacet

 facet normal 0 1 0
  outer loop
  vertex -75 120 23.5
  vertex -75 120 29.5
  vertex -69 120 29.5
  endloop
 endfacet

 facet normal 0 1 0
  outer loop
  vertex -75 120 23.5
  vertex -69 120 29.5
  vertex -69 120 23.5
  endloop
 endfacet

 facet normal 0 0 -1
  outer loop
  vertex -69 120 23.5
  vertex -69 110.0000991821289 23.5
  vertex -69.5 110.0000991821289 23.5
  endloop
 endfacet

 facet normal 1 0 0
  outer loop
  vertex -69 59 23.5
  vertex -69 95 23.5
  vertex -69 95 23.50009918212891
  endloop
 endfacet

 facet normal 1 0 0
  outer loop
  vertex -69 59 23.50009918212891
  vertex -69 59 23.5
  vertex -69 95 23.50009918212891
  endloop
 endfacet

 facet normal 0 -1 0
  outer loop
  vertex 16.06360054016113 44 23.50009918212891
  vertex -69 44 23.50009918212891
  vertex -69 44 23.5
  endloop
 endfacet

 facet normal 1 0 0
  outer loop
  vertex -69 120 29.5
  vertex -69 32 23.5
  vertex -69 44 23.50009918212891
  endloop
 endfacet

 facet normal -0.530587375164032 -0.8476302623748779 3.162092616548762e-05
  outer loop
  vertex 4.864399909973145 51.01029968261719 23.50009918212891
  vertex -67.15950012207031 96.09489440917969 26.5
  vertex -7.899400234222412 59 23.50009918212891
  endloop
 endfacet

 facet normal 0 -1 0
  outer loop
  vertex -74.5 69.62259674072266 23.5
  vertex -74.5 69.62259674072266 20.5
  vertex 74.5 69.62259674072266 20.5
  endloop
 endfacet

 facet normal 1 0 0
  outer loop
  vertex 74.5 84.62260437011719 23.5
  vertex 74.5 69.62259674072266 20.5
  vertex 74.5 84.62260437011719 20.5
  endloop
 endfacet

 facet normal 0 0 -1
  outer loop
  vertex 74.5 84.62260437011719 20.5
  vertex -74.5 69.62259674072266 20.5
  vertex -74.5 84.62260437011719 20.5
  endloop
 endfacet

 facet normal -1 0 0
  outer loop
  vertex -74.5 84.62260437011719 20.5
  vertex -74.5 69.62259674072266 20.5
  vertex -74.5 69.62259674072266 23.5
  endloop
 endfacet

 facet normal 0 0 1
  outer loop
  vertex -69 59 23.50009918212891
  vertex -69 58.4463005065918 23.50009918212891
  vertex -7.899400234222412 59 23.50009918212891
  endloop
 endfacet

 facet normal 0 0 1
  outer loop
  vertex -69 44 23.50009918212891
  vertex 16.06360054016113 44 23.50009918212891
  vertex 4.864399909973145 51.01029968261719 23.50009918212891
  endloop
 endfacet

 facet normal 1 0 0
  outer loop
  vertex -69 95 23.50009918212891
  vertex -69 120 29.5
  vertex -69 59 23.50009918212891
  endloop
 endfacet

 facet normal 1 0 0
  outer loop
  vertex -69 110.0000991821289 23.50009918212891
  vertex -69 120 23.5
  vertex -69 120 29.5
  endloop
 endfacet

 facet normal 1 0 0
  outer loop
  vertex -69 110.0000991821289 23.5
  vertex -69 120 23.5
  vertex -69 110.0000991821289 23.50009918212891
  endloop
 endfacet

 facet normal 1 0 0
  outer loop
  vertex -69 95 23.50009918212891
  vertex -69 109.4463958740234 23.50009918212891
  vertex -69 120 29.5
  endloop
 endfacet

 facet normal 1 0 0
  outer loop
  vertex -69 109.4463958740234 23.50009918212891
  vertex -69 110.0000991821289 23.50009918212891
  vertex -69 120 29.5
  endloop
 endfacet

 facet normal 1 0 0
  outer loop
  vertex -69 58.4463005065918 23.50009918212891
  vertex -69 120 29.5
  vertex -69 44 23.50009918212891
  endloop
 endfacet

 facet normal 0 0 1
  outer loop
  vertex -69 58.4463005065918 23.50009918212891
  vertex 4.864399909973145 51.01029968261719 23.50009918212891
  vertex -7.899400234222412 59 23.50009918212891
  endloop
 endfacet

 facet normal 0 0 -1
  outer loop
  vertex 74.5 84.62260437011719 20.5
  vertex 74.5 69.62259674072266 20.5
  vertex -74.5 69.62259674072266 20.5
  endloop
 endfacet

 facet normal 1 0 0
  outer loop
  vertex -69 59 23.50009918212891
  vertex -69 120 29.5
  vertex -69 58.4463005065918 23.50009918212891
  endloop
 endfacet

 facet normal 0 0 1
  outer loop
  vertex -69 58.4463005065918 23.50009918212891
  vertex -69 44 23.50009918212891
  vertex 4.864399909973145 51.01029968261719 23.50009918212891
  endloop
 endfacet

 facet normal 1 0 0
  outer loop
  vertex 74.5 95 23.5
  vertex 74.5 95 20.50009918212891
  vertex 74.5 109.9996948242188 23.5
  endloop
 endfacet

 facet normal 0 -1 0
  outer loop
  vertex 73.75 95 23.5
  vertex 74.5 95 20.50009918212891
  vertex 74.5 95 23.5
  endloop
 endfacet

 facet normal 0 -1 0
  outer loop
  vertex 70.20899963378906 95 23.5
  vertex 74.5 95 20.50009918212891
  vertex 73.75 95 23.5
  endloop
 endfacet

 facet normal 0 -1 0
  outer loop
  vertex 69 95 23.50009918212891
  vertex -37.12639999389648 95 23.50009918212891
  vertex -37.12639999389648 95 23.5
  endloop
 endfacet

 facet normal 0 -1 0
  outer loop
  vertex 69.45449829101562 95 23.5
  vertex 74.5 95 20.50009918212891
  vertex 70.20899963378906 95 23.5
  endloop
 endfacet

 facet normal 0 -1 0
  outer loop
  vertex 69 95 23.5
  vertex 74.5 95 20.50009918212891
  vertex 69.45449829101562 95 23.5
  endloop
 endfacet

 facet normal 0 -1 0
  outer loop
  vertex 69 95 23.50009918212891
  vertex -37.12639999389648 95 23.5
  vertex 69 95 23.5
  endloop
 endfacet

 facet normal 0 -1 0
  outer loop
  vertex -37.12639999389648 95 23.5
  vertex -37.30110168457031 95 23.5
  vertex 74.5 95 20.50009918212891
  endloop
 endfacet

 facet normal 0 -1 0
  outer loop
  vertex -40.58660125732422 95 23.5
  vertex -63.28929901123047 95 23.5
  vertex 74.5 95 20.50009918212891
  endloop
 endfacet

 facet normal 0 -1 0
  outer loop
  vertex 69 95 23.5
  vertex -37.12639999389648 95 23.5
  vertex 74.5 95 20.50009918212891
  endloop
 endfacet

 facet normal 0 -1 0
  outer loop
  vertex -37.30110168457031 95 23.5
  vertex -40.58660125732422 95 23.5
  vertex 74.5 95 20.50009918212891
  endloop
 endfacet

 facet normal 0 -1 0
  outer loop
  vertex -63.28929901123047 95 23.5
  vertex -64.64659881591797 95 23.5
  vertex 74.5 95 20.50009918212891
  endloop
 endfacet

 facet normal 0 -1 0
  outer loop
  vertex -64.64659881591797 95 23.5
  vertex -64.94380187988281 95 23.5
  vertex 74.5 95 20.50009918212891
  endloop
 endfacet

 facet normal 0 -1 0
  outer loop
  vertex -64.94380187988281 95 23.5
  vertex -65.410400390625 95 23.5
  vertex 74.5 95 20.50009918212891
  endloop
 endfacet

 facet normal 0 -1 0
  outer loop
  vertex -69 95 23.5
  vertex -65.410400390625 95 23.5
  vertex -69 95 23.50009918212891
  endloop
 endfacet

 facet normal 0 -1 0
  outer loop
  vertex -65.410400390625 95 23.5
  vertex -65.410400390625 95 23.50009918212891
  vertex -69 95 23.50009918212891
  endloop
 endfacet

 facet normal 0 -1 0
  outer loop
  vertex -69 95 23.5
  vertex -70.25 95 23.5
  vertex 74.5 95 20.50009918212891
  endloop
 endfacet

 facet normal 0 -1 0
  outer loop
  vertex -73.79100036621094 95 23.5
  vertex -74.49649810791016 95 23.5
  vertex 74.5 95 20.50009918212891
  endloop
 endfacet

 facet normal 0 -1 0
  outer loop
  vertex -65.410400390625 95 23.5
  vertex -69 95 23.5
  vertex 74.5 95 20.50009918212891
  endloop
 endfacet

 facet normal 0 -1 0
  outer loop
  vertex -70.25 95 23.5
  vertex -73.79100036621094 95 23.5
  vertex 74.5 95 20.50009918212891
  endloop
 endfacet

 facet normal 1 0 0
  outer loop
  vertex 74.5 109.9996948242188 23.5
  vertex 74.5 95 20.50009918212891
  vertex 74.5 110.0000991821289 20.50009918212891
  endloop
 endfacet

 facet normal 1 0 0
  outer loop
  vertex 74.5 110.0000991821289 23.5
  vertex 74.5 109.9996948242188 23.5
  vertex 74.5 110.0000991821289 20.50009918212891
  endloop
 endfacet

 facet normal 0 -1 0
  outer loop
  vertex -74.49649810791016 95 23.5
  vertex -74.5 95 20.50009918212891
  vertex 74.5 95 20.50009918212891
  endloop
 endfacet

 facet normal 0 -1 0
  outer loop
  vertex -74.49649810791016 95 23.5
  vertex -74.5 95 23.5
  vertex -74.5 95 20.50009918212891
  endloop
 endfacet

 facet normal 0 0 1
  outer loop
  vertex -37.12639999389648 95 23.50009918212891
  vertex 69 95 23.50009918212891
  vertex 69 95.55369567871094 23.50009918212891
  endloop
 endfacet

 facet normal 0 0 1
  outer loop
  vertex -58.5192985534668 108.3912963867188 23.50009918212891
  vertex -37.12639999389648 95 23.50009918212891
  vertex 69 95.55369567871094 23.50009918212891
  endloop
 endfacet

 facet normal 0 0 1
  outer loop
  vertex -69 95 23.50009918212891
  vertex -65.410400390625 95 23.50009918212891
  vertex -67.15950012207031 96.09489440917969 23.50009918212891
  endloop
 endfacet

 facet normal 0 0 1
  outer loop
  vertex -59.40639877319336 108.480598449707 23.50009918212891
  vertex -69 109.4463958740234 23.50009918212891
  vertex -67.15950012207031 96.09489440917969 23.50009918212891
  endloop
 endfacet

 facet normal 0 0 1
  outer loop
  vertex -67.15950012207031 96.09489440917969 23.50009918212891
  vertex -69 109.4463958740234 23.50009918212891
  vertex -69 95 23.50009918212891
  endloop
 endfacet

 facet normal 0 0 -1
  outer loop
  vertex 74.5 110.0000991821289 20.50009918212891
  vertex 74.5 95 20.50009918212891
  vertex -74.5 95 20.50009918212891
  endloop
 endfacet

 facet normal 0 1 0
  outer loop
  vertex 74.49649810791016 110.0000991821289 23.5
  vertex 74.5 110.0000991821289 20.50009918212891
  vertex -74.5 110.0000991821289 20.50009918212891
  endloop
 endfacet

 facet normal 0 1 0
  outer loop
  vertex 74.49649810791016 110.0000991821289 23.5
  vertex 74.5 110.0000991821289 23.5
  vertex 74.5 110.0000991821289 20.50009918212891
  endloop
 endfacet

 facet normal -1 0 0
  outer loop
  vertex -74.5 95.00039672851562 23.5
  vertex -74.5 110.0000991821289 20.50009918212891
  vertex -74.5 95 20.50009918212891
  endloop
 endfacet

 facet normal -1 0 0
  outer loop
  vertex -74.5 95 23.5
  vertex -74.5 95.00039672851562 23.5
  vertex -74.5 95 20.50009918212891
  endloop
 endfacet

 facet normal 0 0 1
  outer loop
  vertex -59.19390106201172 108.8134994506836 23.50009918212891
  vertex -58.5192985534668 108.3912963867188 23.50009918212891
  vertex 69 110.0000991821289 23.50009918212891
  endloop
 endfacet

 facet normal 0 0 1
  outer loop
  vertex -69 110.0000991821289 23.50009918212891
  vertex -59.40639877319336 108.480598449707 23.50009918212891
  vertex -59.19699859619141 108.8151016235352 23.50009918212891
  endloop
 endfacet

 facet normal 0 0 1
  outer loop
  vertex 69 110.0000991821289 23.50009918212891
  vertex -69 110.0000991821289 23.50009918212891
  vertex -59.19680023193359 108.8153991699219 23.50009918212891
  endloop
 endfacet

 facet normal 0 0 1
  outer loop
  vertex -59.19680023193359 108.8153991699219 23.50009918212891
  vertex -69 110.0000991821289 23.50009918212891
  vertex -59.19699859619141 108.8151016235352 23.50009918212891
  endloop
 endfacet

 facet normal 0 0 1
  outer loop
  vertex -58.5192985534668 108.3912963867188 23.50009918212891
  vertex 69 95.55369567871094 23.50009918212891
  vertex 69 110.0000991821289 23.50009918212891
  endloop
 endfacet

 facet normal 0 0 1
  outer loop
  vertex -59.19390106201172 108.8134994506836 23.50009918212891
  vertex 69 110.0000991821289 23.50009918212891
  vertex -59.19680023193359 108.8153991699219 23.50009918212891
  endloop
 endfacet

 facet normal 0 0 1
  outer loop
  vertex -59.40639877319336 108.480598449707 23.50009918212891
  vertex -69 110.0000991821289 23.50009918212891
  vertex -69 109.4463958740234 23.50009918212891
  endloop
 endfacet

 facet normal 0 0 -1
  outer loop
  vertex 74.5 110.0000991821289 20.50009918212891
  vertex -74.5 95 20.50009918212891
  vertex -74.5 110.0000991821289 20.50009918212891
  endloop
 endfacet

 facet normal 0 1 0
  outer loop
  vertex -74.5 110.0000991821289 20.50009918212891
  vertex -74.5 110.0000991821289 23.5
  vertex -69.5 110.0000991821289 23.5
  endloop
 endfacet

 facet normal 0 1 0
  outer loop
  vertex -69 110.0000991821289 23.5
  vertex -74.5 110.0000991821289 20.50009918212891
  vertex -69.5 110.0000991821289 23.5
  endloop
 endfacet

 facet normal 0 1 0
  outer loop
  vertex -69 110.0000991821289 23.50009918212891
  vertex 69 110.0000991821289 23.5
  vertex -69 110.0000991821289 23.5
  endloop
 endfacet

 facet normal 0 1 0
  outer loop
  vertex -69 110.0000991821289 23.50009918212891
  vertex 69 110.0000991821289 23.50009918212891
  vertex 69 110.0000991821289 23.5
  endloop
 endfacet

 facet normal 0 1 0
  outer loop
  vertex -69 110.0000991821289 23.5
  vertex 69 110.0000991821289 23.5
  vertex -74.5 110.0000991821289 20.50009918212891
  endloop
 endfacet

 facet normal 0 1 0
  outer loop
  vertex 69 110.0000991821289 23.5
  vertex 69.18180084228516 110.0000991821289 23.5
  vertex -74.5 110.0000991821289 20.50009918212891
  endloop
 endfacet

 facet normal 0 1 0
  outer loop
  vertex 69.18180084228516 110.0000991821289 23.5
  vertex 69.48359680175781 110.0000991821289 23.5
  vertex -74.5 110.0000991821289 20.50009918212891
  endloop
 endfacet

 facet normal 0 1 0
  outer loop
  vertex 69.48359680175781 110.0000991821289 23.5
  vertex 74.49649810791016 110.0000991821289 23.5
  vertex -74.5 110.0000991821289 20.50009918212891
  endloop
 endfacet

 facet normal -1 0 0
  outer loop
  vertex -74.5 110.0000991821289 20.50009918212891
  vertex -74.5 95.00039672851562 23.5
  vertex -74.5 109.6609954833984 23.5
  endloop
 endfacet

 facet normal -1 0 0
  outer loop
  vertex -74.5 110.0000991821289 23.5
  vertex -74.5 110.0000991821289 20.50009918212891
  vertex -74.5 109.6609954833984 23.5
  endloop
 endfacet

 facet normal 1 0 0
  outer loop
  vertex 74.5 109.9996948242188 23.5
  vertex 74.5 110.0000991821289 23.50009918212891
  vertex 74.5 95 23.50009918212891
  endloop
 endfacet

 facet normal 1 0 0
  outer loop
  vertex 74.5 95 23.5
  vertex 74.5 109.9996948242188 23.5
  vertex 74.5 95 23.50009918212891
  endloop
 endfacet

 facet normal 1 0 0
  outer loop
  vertex 74.5 110.0000991821289 23.5
  vertex 74.5 110.0000991821289 23.50009918212891
  vertex 74.5 109.9996948242188 23.5
  endloop
 endfacet

 facet normal 0 0 1
  outer loop
  vertex 69 95.55369567871094 23.50009918212891
  vertex 74.5 95 23.50009918212891
  vertex 74.5 110.0000991821289 23.50009918212891
  endloop
 endfacet

 facet normal 0 0 1
  outer loop
  vertex 69 110.0000991821289 23.50009918212891
  vertex 69 95.55369567871094 23.50009918212891
  vertex 74.5 110.0000991821289 23.50009918212891
  endloop
 endfacet

 facet normal 0 -1 0
  outer loop
  vertex 73.75 95 23.5
  vertex 74.5 95 23.5
  vertex 74.5 95 23.50009918212891
  endloop
 endfacet

 facet normal 0 -1 0
  outer loop
  vertex 69 95 23.50009918212891
  vertex 69.45449829101562 95 23.5
  vertex 70.20899963378906 95 23.5
  endloop
 endfacet

 facet normal 0 -1 0
  outer loop
  vertex 69 95 23.5
  vertex 69.45449829101562 95 23.5
  vertex 69 95 23.50009918212891
  endloop
 endfacet

 facet normal 0 -1 0
  outer loop
  vertex 69 95 23.50009918212891
  vertex 70.20899963378906 95 23.5
  vertex 74.5 95 23.50009918212891
  endloop
 endfacet

 facet normal 0 -1 0
  outer loop
  vertex 70.20899963378906 95 23.5
  vertex 73.75 95 23.5
  vertex 74.5 95 23.50009918212891
  endloop
 endfacet

 facet normal 0 1 0
  outer loop
  vertex 74.49649810791016 110.0000991821289 23.5
  vertex 74.5 110.0000991821289 23.50009918212891
  vertex 74.5 110.0000991821289 23.5
  endloop
 endfacet

 facet normal 0 0 1
  outer loop
  vertex 69 95 23.50009918212891
  vertex 74.5 95 23.50009918212891
  vertex 69 95.55369567871094 23.50009918212891
  endloop
 endfacet

 facet normal 0 1 0
  outer loop
  vertex 69.48359680175781 110.0000991821289 23.5
  vertex 74.5 110.0000991821289 23.50009918212891
  vertex 74.49649810791016 110.0000991821289 23.5
  endloop
 endfacet

 facet normal 0 1 0
  outer loop
  vertex 69.18180084228516 110.0000991821289 23.5
  vertex 69 110.0000991821289 23.50009918212891
  vertex 69.48359680175781 110.0000991821289 23.5
  endloop
 endfacet

 facet normal 0 1 0
  outer loop
  vertex 69.48359680175781 110.0000991821289 23.5
  vertex 69 110.0000991821289 23.50009918212891
  vertex 74.5 110.0000991821289 23.50009918212891
  endloop
 endfacet

 facet normal 0 1 0
  outer loop
  vertex 69 110.0000991821289 23.5
  vertex 69 110.0000991821289 23.50009918212891
  vertex 69.18180084228516 110.0000991821289 23.5
  endloop
 endfacet

 facet normal -1 0 0
  outer loop
  vertex -74.5 95 23.5
  vertex -74.5 95 23.50009918212891
  vertex -74.5 95.00039672851562 23.5
  endloop
 endfacet

 facet normal 0 -1 0
  outer loop
  vertex -74.49649810791016 95 23.5
  vertex -74.5 95 23.50009918212891
  vertex -74.5 95 23.5
  endloop
 endfacet

 facet normal -1 0 0
  outer loop
  vertex -74.5 109.6609954833984 23.5
  vertex -74.5 95 23.50009918212891
  vertex -74.5 110.0000991821289 23.50009918212891
  endloop
 endfacet

 facet normal -1 0 0
  outer loop
  vertex -74.5 109.6609954833984 23.5
  vertex -74.5 95.00039672851562 23.5
  vertex -74.5 95 23.50009918212891
  endloop
 endfacet

 facet normal -1 0 0
  outer loop
  vertex -74.5 110.0000991821289 23.5
  vertex -74.5 109.6609954833984 23.5
  vertex -74.5 110.0000991821289 23.50009918212891
  endloop
 endfacet

 facet normal 0 -1 0
  outer loop
  vertex -74.5 95 23.50009918212891
  vertex -74.49649810791016 95 23.5
  vertex -73.79100036621094 95 23.5
  endloop
 endfacet

 facet normal 0 -1 0
  outer loop
  vertex -69 95 23.5
  vertex -69 95 23.50009918212891
  vertex -70.25 95 23.5
  endloop
 endfacet

 facet normal 0 -1 0
  outer loop
  vertex -70.25 95 23.5
  vertex -74.5 95 23.50009918212891
  vertex -73.79100036621094 95 23.5
  endloop
 endfacet

 facet normal 0 -1 0
  outer loop
  vertex -69 95 23.50009918212891
  vertex -74.5 95 23.50009918212891
  vertex -70.25 95 23.5
  endloop
 endfacet

 facet normal 0 0 1
  outer loop
  vertex -69 109.4463958740234 23.50009918212891
  vertex -74.5 95 23.50009918212891
  vertex -69 95 23.50009918212891
  endloop
 endfacet

 facet normal 0 0 1
  outer loop
  vertex -69 109.4463958740234 23.50009918212891
  vertex -74.5 110.0000991821289 23.50009918212891
  vertex -74.5 95 23.50009918212891
  endloop
 endfacet

 facet normal 0 1 0
  outer loop
  vertex -69 110.0000991821289 23.5
  vertex -69.5 110.0000991821289 23.5
  vertex -69 110.0000991821289 23.50009918212891
  endloop
 endfacet

 facet normal 0 1 0
  outer loop
  vertex -69.5 110.0000991821289 23.5
  vertex -74.5 110.0000991821289 23.5
  vertex -74.5 110.0000991821289 23.50009918212891
  endloop
 endfacet

 facet normal 0 1 0
  outer loop
  vertex -69 110.0000991821289 23.50009918212891
  vertex -69.5 110.0000991821289 23.5
  vertex -74.5 110.0000991821289 23.50009918212891
  endloop
 endfacet

 facet normal 0 0 1
  outer loop
  vertex -74.5 110.0000991821289 23.50009918212891
  vertex -69 109.4463958740234 23.50009918212891
  vertex -69 110.0000991821289 23.50009918212891
  endloop
 endfacet

 facet normal 0 -1 0
  outer loop
  vertex -64.94380187988281 95 23.5
  vertex -65.410400390625 95 23.50009918212891
  vertex -65.410400390625 95 23.5
  endloop
 endfacet

 facet normal 0 -1 0
  outer loop
  vertex -64.94380187988281 95 23.5
  vertex -64.64659881591797 95 23.5
  vertex -65.410400390625 95 23.50009918212891
  endloop
 endfacet

 facet normal 0 -1 0
  outer loop
  vertex -64.64659881591797 95 23.5
  vertex -63.28929901123047 95 23.5
  vertex -65.410400390625 95 23.50009918212891
  endloop
 endfacet

 facet normal 0 -1 0
  outer loop
  vertex -63.28929901123047 95 23.5
  vertex -40.58660125732422 95 23.5
  vertex -65.410400390625 95 23.50009918212891
  endloop
 endfacet

 facet normal 0 -1 0
  outer loop
  vertex -40.58660125732422 95 23.5
  vertex -37.12639999389648 95 23.50009918212891
  vertex -65.410400390625 95 23.50009918212891
  endloop
 endfacet

 facet normal 0 -1 0
  outer loop
  vertex -37.30110168457031 95 23.5
  vertex -37.12639999389648 95 23.50009918212891
  vertex -40.58660125732422 95 23.5
  endloop
 endfacet

 facet normal 0 -1 0
  outer loop
  vertex -37.12639999389648 95 23.5
  vertex -37.12639999389648 95 23.50009918212891
  vertex -37.30110168457031 95 23.5
  endloop
 endfacet

 facet normal 0 0 1
  outer loop
  vertex -65.410400390625 95 23.50009918212891
  vertex -37.12639999389648 95 23.50009918212891
  vertex -58.5192985534668 108.3912963867188 23.50009918212891
  endloop
 endfacet

 facet normal 0 0 1
  outer loop
  vertex -67.15950012207031 96.09489440917969 23.50009918212891
  vertex -65.410400390625 95 23.50009918212891
  vertex -59.40639877319336 108.480598449707 23.50009918212891
  endloop
 endfacet

 facet normal 0 0 1
  outer loop
  vertex -59.40639877319336 108.480598449707 23.50009918212891
  vertex -65.410400390625 95 23.50009918212891
  vertex -58.5192985534668 108.3912963867188 23.50009918212891
  endloop
 endfacet

 facet normal 0 0 1
  outer loop
  vertex -59.40639877319336 108.480598449707 23.50009918212891
  vertex -58.5192985534668 108.3912963867188 23.50009918212891
  vertex -59.19390106201172 108.8134994506836 23.50009918212891
  endloop
 endfacet

 facet normal 0 0 1
  outer loop
  vertex -59.19699859619141 108.8151016235352 23.50009918212891
  vertex -59.40639877319336 108.480598449707 23.50009918212891
  vertex -59.19390106201172 108.8134994506836 23.50009918212891
  endloop
 endfacet

 facet normal 0 0 1
  outer loop
  vertex -59.19680023193359 108.8153991699219 23.50009918212891
  vertex -59.19699859619141 108.8151016235352 23.50009918212891
  vertex -59.19390106201172 108.8134994506836 23.50009918212891
  endloop
 endfacet

endsolidAssimpScene
