solid AssimpScene
 facet normal 0 -1 0
  outer loop
  vertex 102.1800231933594 0 43.61087799072266
  vertex 45.37773132324219 0 69.89482879638672
  vertex 3.087779998779297 0 68.74099731445312
  endloop
 endfacet

 facet normal 0 -1 0
  outer loop
  vertex 102.1800231933594 0 43.61087799072266
  vertex 3.087779998779297 0 68.74099731445312
  vertex 101.7581787109375 0 42.44415283203125
  endloop
 endfacet

 facet normal 0 -1 0
  outer loop
  vertex -1.003110885620117 0 62.15013122558594
  vertex -5.915660858154297 0 64.85989379882812
  vertex -7.681388854980469 0 60.47182083129883
  endloop
 endfacet

 facet normal 0 -1 0
  outer loop
  vertex -7.681388854980469 0 60.47182083129883
  vertex -19.23725891113281 0 62.42984008789062
  vertex -26.19525909423828 0 55.45434951782227
  endloop
 endfacet

 facet normal 0 -1 0
  outer loop
  vertex -26.19525909423828 0 55.45434951782227
  vertex -29.76166915893555 0 56.27603912353516
  vertex -30.16376876831055 0 51.25859069824219
  endloop
 endfacet

 facet normal 0 -1 0
  outer loop
  vertex -30.16376876831055 0 51.25859069824219
  vertex -55.68810272216797 0 32.23770904541016
  vertex -37.08681106567383 0 -0.7690792083740234
  endloop
 endfacet

 facet normal 0 -1 0
  outer loop
  vertex -37.08681106567383 0 -0.7690792083740234
  vertex 0.3255500793457031 0 -19.89482879638672
  vertex 44.20639801025391 0 -10.06972885131836
  endloop
 endfacet

 facet normal 0 -1 0
  outer loop
  vertex 44.20639801025391 0 -10.06972885131836
  vertex 74.74819946289062 0 -11.46831130981445
  vertex 86.37400054931641 0 -7.762039184570312
  endloop
 endfacet

 facet normal 0 -1 0
  outer loop
  vertex 3.087779998779297 0 68.74099731445312
  vertex 86.37400054931641 0 -7.762039184570312
  vertex 105.688102722168 0 34.07270812988281
  endloop
 endfacet

 facet normal 0 -1 0
  outer loop
  vertex 3.087779998779297 0 68.74099731445312
  vertex 105.688102722168 0 34.07270812988281
  vertex 101.7581787109375 0 42.44415283203125
  endloop
 endfacet

 facet normal 0 -1 0
  outer loop
  vertex -1.003110885620117 0 62.15013122558594
  vertex -7.681388854980469 0 60.47182083129883
  vertex -26.19525909423828 0 55.45434951782227
  endloop
 endfacet

 facet normal 0 -1 0
  outer loop
  vertex -26.19525909423828 0 55.45434951782227
  vertex -30.16376876831055 0 51.25859069824219
  vertex -37.08681106567383 0 -0.7690792083740234
  endloop
 endfacet

 facet normal 0 -1 0
  outer loop
  vertex -37.08681106567383 0 -0.7690792083740234
  vertex 44.20639801025391 0 -10.06972885131836
  vertex 86.37400054931641 0 -7.762039184570312
  endloop
 endfacet

 facet normal 0 -1 0
  outer loop
  vertex 86.37400054931641 0 -7.762039184570312
  vertex 3.087779998779297 0 68.74099731445312
  vertex -1.003110885620117 0 62.15013122558594
  endloop
 endfacet

 facet normal 0 -1 0
  outer loop
  vertex -1.003110885620117 0 62.15013122558594
  vertex -26.19525909423828 0 55.45434951782227
  vertex -37.08681106567383 0 -0.7690792083740234
  endloop
 endfacet

 facet normal 0 -1 0
  outer loop
  vertex -37.08681106567383 0 -0.7690792083740234
  vertex 86.37400054931641 0 -7.762039184570312
  vertex -1.003110885620117 0 62.15013122558594
  endloop
 endfacet

 facet normal 0 1 0
  outer loop
  vertex 41.18561935424805 18.17416000366211 68.66880035400391
  vertex 48.61222076416016 18.17416000366211 67.13961791992188
  vertex 3.843099594116211 18.17416000366211 67.64996337890625
  endloop
 endfacet

 facet normal 0 1 0
  outer loop
  vertex 48.61222076416016 18.17416000366211 67.13961791992188
  vertex 99.08985900878906 18.17416000366211 42.26560211181641
  vertex 3.843099594116211 18.17416000366211 67.64996337890625
  endloop
 endfacet

 facet normal 0 1 0
  outer loop
  vertex 99.55966186523438 18.17416000366211 43.56500244140625
  vertex 99.08985900878906 18.17416000366211 42.26560211181641
  vertex 48.61222076416016 18.17416000366211 67.13961791992188
  endloop
 endfacet

 facet normal 0 1 0
  outer loop
  vertex -6.657459259033203 18.17416000366211 59.58703994750977
  vertex -4.935779571533203 18.17416000366211 63.86566162109375
  vertex -0.1457405090332031 18.17416000366211 61.22348022460938
  endloop
 endfacet

 facet normal 0 1 0
  outer loop
  vertex -24.70956039428711 18.17416000366211 54.69474029541016
  vertex -17.92509841918945 18.17416000366211 61.49621963500977
  vertex -6.657459259033203 18.17416000366211 59.58703994750977
  endloop
 endfacet

 facet normal 0 1 0
  outer loop
  vertex -28.57904052734375 18.17416000366211 50.60359954833984
  vertex -28.1870002746582 18.17416000366211 55.49591827392578
  vertex -24.70956039428711 18.17416000366211 54.69474029541016
  endloop
 endfacet

 facet normal 0 1 0
  outer loop
  vertex -35.32939910888672 18.17416000366211 -0.1263198852539062
  vertex -53.46672058105469 18.17416000366211 32.05720138549805
  vertex -28.57904052734375 18.17416000366211 50.60359954833984
  endloop
 endfacet

 facet normal 0 1 0
  outer loop
  vertex 43.93610000610352 18.17416000366211 -9.194961547851562
  vertex 1.149759292602539 18.17416000366211 -18.77500152587891
  vertex -35.32939910888672 18.17416000366211 -0.1263198852539062
  endloop
 endfacet

 facet normal 0 1 0
  outer loop
  vertex 81.34178161621094 18.17416000366211 -8.127521514892578
  vertex 73.71604156494141 18.17416000366211 -10.55865859985352
  vertex 43.93610000610352 18.17416000366211 -9.194961547851562
  endloop
 endfacet

 facet normal 0 1 0
  outer loop
  vertex 81.34178161621094 18.17416000366211 -8.127521514892578
  vertex 43.93610000610352 18.17416000366211 -9.194961547851562
  vertex 81.16361999511719 18.17416000366211 -7.157718658447266
  endloop
 endfacet

 facet normal 0 1 0
  outer loop
  vertex 103.4666595458984 18.17416000366211 32.94200134277344
  vertex 82.18405914306641 18.17416000366211 -4.31056022644043
  vertex 99.08985900878906 18.17416000366211 42.26560211181641
  endloop
 endfacet

 facet normal 0 1 0
  outer loop
  vertex 82.18405914306641 18.17416000366211 -4.31056022644043
  vertex 3.843099594116211 18.17416000366211 67.64996337890625
  vertex 99.08985900878906 18.17416000366211 42.26560211181641
  endloop
 endfacet

 facet normal 0 1 0
  outer loop
  vertex 86.68405914306641 18.17416000366211 -3.409280776977539
  vertex 82.18405914306641 18.17416000366211 -4.31056022644043
  vertex 103.4666595458984 18.17416000366211 32.94200134277344
  endloop
 endfacet

 facet normal 0 1 0
  outer loop
  vertex -24.70956039428711 18.17416000366211 54.69474029541016
  vertex -6.657459259033203 18.17416000366211 59.58703994750977
  vertex -0.1457405090332031 18.17416000366211 61.22348022460938
  endloop
 endfacet

 facet normal 0 1 0
  outer loop
  vertex -35.32939910888672 18.17416000366211 -0.1263198852539062
  vertex -28.57904052734375 18.17416000366211 50.60359954833984
  vertex -24.70956039428711 18.17416000366211 54.69474029541016
  endloop
 endfacet

 facet normal 0 1 0
  outer loop
  vertex 81.16361999511719 18.17416000366211 -7.157718658447266
  vertex 43.93610000610352 18.17416000366211 -9.194961547851562
  vertex -35.32939910888672 18.17416000366211 -0.1263198852539062
  endloop
 endfacet

 facet normal 0 1 0
  outer loop
  vertex 81.16361999511719 18.17416000366211 -7.157718658447266
  vertex -35.32939910888672 18.17416000366211 -0.1263198852539062
  vertex 81.16400146484375 18.17416000366211 -6.724700927734375
  endloop
 endfacet

 facet normal 0 1 0
  outer loop
  vertex 82.01136016845703 18.17416000366211 -4.512079238891602
  vertex -0.1457405090332031 18.17416000366211 61.22348022460938
  vertex 3.843099594116211 18.17416000366211 67.64996337890625
  endloop
 endfacet

 facet normal 0 1 0
  outer loop
  vertex 82.01136016845703 18.17416000366211 -4.512079238891602
  vertex 3.843099594116211 18.17416000366211 67.64996337890625
  vertex 82.18405914306641 18.17416000366211 -4.31056022644043
  endloop
 endfacet

 facet normal 0 1 0
  outer loop
  vertex -35.32939910888672 18.17416000366211 -0.1263198852539062
  vertex -24.70956039428711 18.17416000366211 54.69474029541016
  vertex -0.1457405090332031 18.17416000366211 61.22348022460938
  endloop
 endfacet

 facet normal 0 1 0
  outer loop
  vertex -35.32939910888672 18.17416000366211 -0.1263198852539062
  vertex -0.1457405090332031 18.17416000366211 61.22348022460938
  vertex 82.01136016845703 18.17416000366211 -4.512079238891602
  endloop
 endfacet

 facet normal 0 1 0
  outer loop
  vertex -35.32939910888672 18.17416000366211 -0.1263198852539062
  vertex 82.01136016845703 18.17416000366211 -4.512079238891602
  vertex 81.16400146484375 18.17416000366211 -6.724700927734375
  endloop
 endfacet

 facet normal 0.3837114572525024 0.4063587188720703 0.829239547252655
  outer loop
  vertex 110.9564590454102 3 45.72719955444336
  vertex 99.99365997314453 16.42218971252441 44.22260284423828
  vertex 47.69496154785156 3 75
  endloop
 endfacet

 facet normal 0.3837094008922577 0.4063602983951569 0.8292397260665894
  outer loop
  vertex 99.55966186523438 18.17416000366211 43.56500244140625
  vertex 48.61222076416016 18.17416000366211 67.13961791992188
  vertex 47.69496154785156 3 75
  endloop
 endfacet

 facet normal 0.3837094008922577 0.4063602983951569 0.8292397260665894
  outer loop
  vertex 99.55966186523438 18.17416000366211 43.56500244140625
  vertex 47.69496154785156 3 75
  vertex 99.99365997314453 16.42218971252441 44.22260284423828
  endloop
 endfacet

 facet normal 0.3837485909461975 0.4063508808612823 0.8292261362075806
  outer loop
  vertex 45.93833923339844 13.18673038482666 70.82106018066406
  vertex 47.69496154785156 3 75
  vertex 48.61222076416016 18.17416000366211 67.13961791992188
  endloop
 endfacet

 facet normal -0.02528556250035763 0.3756817281246185 0.9264037609100342
  outer loop
  vertex 45.93833923339844 13.18673038482666 70.82106018066406
  vertex 41.18561935424805 18.17416000366211 68.66880035400391
  vertex 47.69496154785156 3 75
  endloop
 endfacet

 facet normal -0.02527588047087193 0.3756853938102722 0.9264025688171387
  outer loop
  vertex 41.18561935424805 18.17416000366211 68.66880035400391
  vertex 0.5960597991943359 3 73.71495819091797
  vertex 47.69496154785156 3 75
  endloop
 endfacet

 facet normal -0.02527566067874432 0.3756848573684692 0.926402747631073
  outer loop
  vertex 3.843099594116211 18.17416000366211 67.64996337890625
  vertex 0.5960597991943359 3 73.71495819091797
  vertex 41.18561935424805 18.17416000366211 68.66880035400391
  endloop
 endfacet

 facet normal 0.4756960868835449 0.1731804460287094 0.8623930811882019
  outer loop
  vertex -9.431198120117188 3 69.39251708984375
  vertex -3.960020065307617 3 66.37461853027344
  vertex -0.1457405090332031 18.17416000366211 61.22348022460938
  endloop
 endfacet

 facet normal 0.4756960868835449 0.1731804460287094 0.8623930811882019
  outer loop
  vertex -9.431198120117188 3 69.39251708984375
  vertex -0.1457405090332031 18.17416000366211 61.22348022460938
  vertex -4.935779571533203 18.17416000366211 63.86566162109375
  endloop
 endfacet

 facet normal -0.8581215143203735 0.3799915909767151 0.3453025221824646
  outer loop
  vertex -11.39772033691406 3 64.50546264648438
  vertex -9.431198120117188 3 69.39251708984375
  vertex -4.935779571533203 18.17416000366211 63.86566162109375
  endloop
 endfacet

 facet normal -0.8581215143203735 0.3799915909767151 0.3453025221824646
  outer loop
  vertex -11.39772033691406 3 64.50546264648438
  vertex -4.935779571533203 18.17416000366211 63.86566162109375
  vertex -6.657459259033203 18.17416000366211 59.58703994750977
  endloop
 endfacet

 facet normal 0.1613888591527939 0.2583138048648834 0.9524850249290466
  outer loop
  vertex -24.26765823364258 3 66.68614196777344
  vertex -11.39772033691406 3 64.50546264648438
  vertex -6.657459259033203 18.17416000366211 59.58703994750977
  endloop
 endfacet

 facet normal 0.1613888591527939 0.2583138048648834 0.9524850249290466
  outer loop
  vertex -24.26765823364258 3 66.68614196777344
  vertex -6.657459259033203 18.17416000366211 59.58703994750977
  vertex -17.92509841918945 18.17416000366211 61.49621963500977
  endloop
 endfacet

 facet normal -0.6236250400543213 0.4734250903129578 0.6220614910125732
  outer loop
  vertex -32.01688003540039 3 58.91743850708008
  vertex -24.26765823364258 3 66.68614196777344
  vertex -17.92509841918945 18.17416000366211 61.49621963500977
  endloop
 endfacet

 facet normal -0.6236250400543213 0.4734250903129578 0.6220614910125732
  outer loop
  vertex -32.01688003540039 3 58.91743850708008
  vertex -17.92509841918945 18.17416000366211 61.49621963500977
  vertex -24.70956039428711 18.17416000366211 54.69474029541016
  endloop
 endfacet

 facet normal 0.2215875834226608 0.1609346121549606 0.9617687463760376
  outer loop
  vertex -35.98883819580078 3 59.83256149291992
  vertex -32.01688003540039 3 58.91743850708008
  vertex -24.70956039428711 18.17416000366211 54.69474029541016
  endloop
 endfacet

 facet normal 0.2215875834226608 0.1609346121549606 0.9617687463760376
  outer loop
  vertex -35.98883819580078 3 59.83256149291992
  vertex -24.70956039428711 18.17416000366211 54.69474029541016
  vertex -28.1870002746582 18.17416000366211 55.49591827392578
  endloop
 endfacet

 facet normal -0.8787998557090759 0.4719648957252502 0.07042703777551651
  outer loop
  vertex -36.43666076660156 3 54.24456024169922
  vertex -35.98883819580078 3 59.83256149291992
  vertex -28.1870002746582 18.17416000366211 55.49591827392578
  endloop
 endfacet

 facet normal -0.8787998557090759 0.4719648957252502 0.07042703777551651
  outer loop
  vertex -36.43666076660156 3 54.24456024169922
  vertex -28.1870002746582 18.17416000366211 55.49591827392578
  vertex -28.57904052734375 18.17416000366211 50.60359954833984
  endloop
 endfacet

 facet normal -0.5340641140937805 0.4485142230987549 0.7166663408279419
  outer loop
  vertex -64.86345672607422 3 33.06074142456055
  vertex -36.43666076660156 3 54.24456024169922
  vertex -28.57904052734375 18.17416000366211 50.60359954833984
  endloop
 endfacet

 facet normal -0.5340641140937805 0.4485142230987549 0.7166663408279419
  outer loop
  vertex -64.86345672607422 3 33.06074142456055
  vertex -28.57904052734375 18.17416000366211 50.60359954833984
  vertex -53.46672058105469 18.17416000366211 32.05720138549805
  endloop
 endfacet

 facet normal -0.7398082613945007 0.5280686616897583 -0.4169259965419769
  outer loop
  vertex -44.14694213867188 3 -3.699380874633789
  vertex -64.86345672607422 3 33.06074142456055
  vertex -53.46672058105469 18.17416000366211 32.05720138549805
  endloop
 endfacet

 facet normal -0.7398082613945007 0.5280686616897583 -0.4169259965419769
  outer loop
  vertex -44.14694213867188 3 -3.699380874633789
  vertex -53.46672058105469 18.17416000366211 32.05720138549805
  vertex -35.32939910888672 18.17416000366211 -0.1263198852539062
  endloop
 endfacet

 facet normal -0.4112908542156219 0.4284409284591675 -0.8045361042022705
  outer loop
  vertex -2.480279922485352 3 -25
  vertex -44.14694213867188 3 -3.699380874633789
  vertex -35.32939910888672 18.17416000366211 -0.1263198852539062
  endloop
 endfacet

 facet normal -0.4112908542156219 0.4284409284591675 -0.8045361042022705
  outer loop
  vertex -2.480279922485352 3 -25
  vertex -35.32939910888672 18.17416000366211 -0.1263198852539062
  vertex 1.149759292602539 18.17416000366211 -18.77500152587891
  endloop
 endfacet

 facet normal 0.2063524723052979 0.3287138342857361 -0.9216105341911316
  outer loop
  vertex 46.39044189453125 3 -14.05764007568359
  vertex -2.480279922485352 3 -25
  vertex 1.149759292602539 18.17416000366211 -18.77500152587891
  endloop
 endfacet

 facet normal 0.2063524723052979 0.3287138342857361 -0.9216105341911316
  outer loop
  vertex 46.39044189453125 3 -14.05764007568359
  vertex 1.149759292602539 18.17416000366211 -18.77500152587891
  vertex 43.93610000610352 18.17416000366211 -9.194961547851562
  endloop
 endfacet

 facet normal -0.04365941509604454 0.2984692454338074 -0.953420102596283
  outer loop
  vertex 80.40525817871094 3 -15.61526107788086
  vertex 46.39044189453125 3 -14.05764007568359
  vertex 43.93610000610352 18.17416000366211 -9.194961547851562
  endloop
 endfacet

 facet normal -0.04365941509604454 0.2984692454338074 -0.953420102596283
  outer loop
  vertex 80.40525817871094 3 -15.61526107788086
  vertex 43.93610000610352 18.17416000366211 -9.194961547851562
  vertex 73.71604156494141 18.17416000366211 -10.55865859985352
  endloop
 endfacet

 facet normal 0.2768464386463165 0.4114201664924622 -0.8683833479881287
  outer loop
  vertex 73.71604156494141 18.17416000366211 -10.55865859985352
  vertex 81.34178161621094 18.17416000366211 -8.127521514892578
  vertex 80.40525817871094 3 -15.61526107788086
  endloop
 endfacet

 facet normal 0.2768158316612244 0.4114255309104919 -0.8683905005455017
  outer loop
  vertex 81.34178161621094 18.17416000366211 -8.127521514892578
  vertex 87.43289947509766 13.82192993164062 -8.247859954833984
  vertex 80.40525817871094 3 -15.61526107788086
  endloop
 endfacet

 facet normal 0.2768397331237793 0.4114099144935608 -0.8683902621269226
  outer loop
  vertex 87.43289947509766 13.82192993164062 -8.247859954833984
  vertex 93.35308074951172 3 -11.48754119873047
  vertex 80.40525817871094 3 -15.61526107788086
  endloop
 endfacet

 facet normal 0.7709145545959473 0.5282609462738037 -0.3558526933193207
  outer loop
  vertex 87.43289947509766 13.82192993164062 -8.247859954833984
  vertex 86.68405914306641 18.17416000366211 -3.409280776977539
  vertex 93.35308074951172 3 -11.48754119873047
  endloop
 endfacet

 facet normal 0.7708842158317566 0.5282730460166931 -0.3559005856513977
  outer loop
  vertex 93.35308074951172 3 -11.48754119873047
  vertex 86.68405914306641 18.17416000366211 -3.409280776977539
  vertex 103.4666595458984 18.17416000366211 32.94200134277344
  endloop
 endfacet

 facet normal 0.7708842158317566 0.5282730460166931 -0.3559005856513977
  outer loop
  vertex 93.35308074951172 3 -11.48754119873047
  vertex 103.4666595458984 18.17416000366211 32.94200134277344
  vertex 104.8358612060547 15.93838024139404 32.58919906616211
  endloop
 endfacet

 facet normal 0.7708859443664551 0.5282711982727051 -0.355899453163147
  outer loop
  vertex 93.35308074951172 3 -11.48754119873047
  vertex 104.8358612060547 15.93838024139404 32.58919906616211
  vertex 114.8634567260742 3 35.10440063476562
  endloop
 endfacet

 facet normal -0.7908746004104614 0.3654395937919617 0.4908884167671204
  outer loop
  vertex -3.960020065307617 3 66.37461853027344
  vertex 0.5960597991943359 3 73.71495819091797
  vertex 3.843099594116211 18.17416000366211 67.64996337890625
  endloop
 endfacet

 facet normal -0.7908746004104614 0.3654395937919617 0.4908884167671204
  outer loop
  vertex -3.960020065307617 3 66.37461853027344
  vertex 3.843099594116211 18.17416000366211 67.64996337890625
  vertex -0.1457405090332031 18.17416000366211 61.22348022460938
  endloop
 endfacet

 facet normal 0.1717986613512039 0.5237693190574646 0.8343565464019775
  outer loop
  vertex 45.93833923339844 13.18673038482666 70.82106018066406
  vertex 48.61222076416016 18.17416000366211 67.13961791992188
  vertex 41.18561935424805 18.17416000366211 68.66880035400391
  endloop
 endfacet

 facet normal 0.1305426359176636 0.7470828890800476 -0.6517866849899292
  outer loop
  vertex 87.43289947509766 13.82192993164062 -8.247859954833984
  vertex 82.18405914306641 18.17416000366211 -4.31056022644043
  vertex 86.68405914306641 18.17416000366211 -3.409280776977539
  endloop
 endfacet

 facet normal 0.5794529318809509 0.8080238699913025 0.1064507812261581
  outer loop
  vertex 81.34178161621094 18.17416000366211 -8.127521514892578
  vertex 81.16361999511719 18.17416000366211 -7.157718658447266
  vertex 87.43289947509766 13.82192993164062 -8.247859954833984
  endloop
 endfacet

 facet normal 0.5702098608016968 0.8214989900588989 -0.0005023299599997699
  outer loop
  vertex 81.16361999511719 18.17416000366211 -7.157718658447266
  vertex 81.16400146484375 18.17416000366211 -6.724700927734375
  vertex 87.43289947509766 13.82192993164062 -8.247859954833984
  endloop
 endfacet

 facet normal 0.5251935124397278 0.8268724679946899 -0.2011311948299408
  outer loop
  vertex 81.16400146484375 18.17416000366211 -6.724700927734375
  vertex 82.01136016845703 18.17416000366211 -4.512079238891602
  vertex 87.43289947509766 13.82192993164062 -8.247859954833984
  endloop
 endfacet

 facet normal 0.4203330874443054 0.8328037261962891 -0.3602195680141449
  outer loop
  vertex 82.01136016845703 18.17416000366211 -4.512079238891602
  vertex 82.18405914306641 18.17416000366211 -4.31056022644043
  vertex 87.43289947509766 13.82192993164062 -8.247859954833984
  endloop
 endfacet

 facet normal 0 -1 0
  outer loop
  vertex 41.12464141845703 16.53610038757324 24.4885196685791
  vertex 31.90267944335938 16.53610038757324 24.87715911865234
  vertex 26.0442008972168 16.53610038757324 14.80233955383301
  endloop
 endfacet

 facet normal 0 -1 0
  outer loop
  vertex 26.0442008972168 16.53610038757324 14.80233955383301
  vertex 29.64505958557129 16.53610038757324 2.046300888061523
  vertex 32.163818359375 16.53610038757324 1.278600692749023
  endloop
 endfacet

 facet normal 0 -1 0
  outer loop
  vertex 32.163818359375 16.53610038757324 1.278600692749023
  vertex 42.58889770507812 16.53610038757324 5.106540679931641
  vertex 45.18833923339844 16.53610038757324 8.460620880126953
  endloop
 endfacet

 facet normal 0 -1 0
  outer loop
  vertex 45.18833923339844 16.53610038757324 8.460620880126953
  vertex 46.69878005981445 16.53610038757324 16.54644012451172
  vertex 41.12464141845703 16.53610038757324 24.4885196685791
  endloop
 endfacet

 facet normal 0 -1 0
  outer loop
  vertex 41.12464141845703 16.53610038757324 24.4885196685791
  vertex 26.0442008972168 16.53610038757324 14.80233955383301
  vertex 32.163818359375 16.53610038757324 1.278600692749023
  endloop
 endfacet

 facet normal 0 -1 0
  outer loop
  vertex 32.163818359375 16.53610038757324 1.278600692749023
  vertex 45.18833923339844 16.53610038757324 8.460620880126953
  vertex 41.12464141845703 16.53610038757324 24.4885196685791
  endloop
 endfacet

 facet normal 0 1 0
  outer loop
  vertex 27.18183898925781 23.91672134399414 14.58771991729736
  vertex 32.38420104980469 23.91672134399414 23.53413963317871
  vertex 40.57329940795898 23.91672134399414 23.18907928466797
  endloop
 endfacet

 facet normal 0 1 0
  outer loop
  vertex 32.61605834960938 23.91672134399414 2.578620910644531
  vertex 30.37944030761719 23.91672134399414 3.260360717773438
  vertex 27.18183898925781 23.91672134399414 14.58771991729736
  endloop
 endfacet

 facet normal 0 1 0
  outer loop
  vertex 44.18186187744141 23.91672134399414 8.956300735473633
  vertex 41.87355804443359 23.91672134399414 5.977819442749023
  vertex 32.61605834960938 23.91672134399414 2.578620910644531
  endloop
 endfacet

 facet normal 0 1 0
  outer loop
  vertex 40.57329940795898 23.91672134399414 23.18907928466797
  vertex 45.52313995361328 23.91672134399414 16.13644027709961
  vertex 44.18186187744141 23.91672134399414 8.956300735473633
  endloop
 endfacet

 facet normal 0 1 0
  outer loop
  vertex 32.61605834960938 23.91672134399414 2.578620910644531
  vertex 27.18183898925781 23.91672134399414 14.58771991729736
  vertex 40.57329940795898 23.91672134399414 23.18907928466797
  endloop
 endfacet

 facet normal 0 1 0
  outer loop
  vertex 40.57329940795898 23.91672134399414 23.18907928466797
  vertex 44.18186187744141 23.91672134399414 8.956300735473633
  vertex 32.61605834960938 23.91672134399414 2.578620910644531
  endloop
 endfacet

 facet normal 0.04144638404250145 0.1762473881244659 0.9834729433059692
  outer loop
  vertex 31.90267944335938 16.53610038757324 24.87715911865234
  vertex 41.12464141845703 16.53610038757324 24.4885196685791
  vertex 40.57329940795898 23.91672134399414 23.18907928466797
  endloop
 endfacet

 facet normal 0.04144638404250145 0.1762473881244659 0.9834729433059692
  outer loop
  vertex 31.90267944335938 16.53610038757324 24.87715911865234
  vertex 40.57329940795898 23.91672134399414 23.18907928466797
  vertex 32.38420104980469 23.91672134399414 23.53413963317871
  endloop
 endfacet

 facet normal -0.8551700115203857 0.1462800204753876 0.497279018163681
  outer loop
  vertex 26.0442008972168 16.53610038757324 14.80233955383301
  vertex 31.90267944335938 16.53610038757324 24.87715911865234
  vertex 32.38420104980469 23.91672134399414 23.53413963317871
  endloop
 endfacet

 facet normal -0.8551700115203857 0.1462800204753876 0.497279018163681
  outer loop
  vertex 26.0442008972168 16.53610038757324 14.80233955383301
  vertex 32.38420104980469 23.91672134399414 23.53413963317871
  vertex 27.18183898925781 23.91672134399414 14.58771991729736
  endloop
 endfacet

 facet normal -0.9530376195907593 0.1390770077705383 -0.269029825925827
  outer loop
  vertex 29.64505958557129 16.53610038757324 2.046300888061523
  vertex 26.0442008972168 16.53610038757324 14.80233955383301
  vertex 27.18183898925781 23.91672134399414 14.58771991729736
  endloop
 endfacet

 facet normal -0.9530376195907593 0.1390770077705383 -0.269029825925827
  outer loop
  vertex 29.64505958557129 16.53610038757324 2.046300888061523
  vertex 27.18183898925781 23.91672134399414 14.58771991729736
  vertex 30.37944030761719 23.91672134399414 3.260360717773438
  endloop
 endfacet

 facet normal -0.2866168618202209 0.1832022219896317 -0.9403658509254456
  outer loop
  vertex 32.163818359375 16.53610038757324 1.278600692749023
  vertex 29.64505958557129 16.53610038757324 2.046300888061523
  vertex 30.37944030761719 23.91672134399414 3.260360717773438
  endloop
 endfacet

 facet normal -0.2866168618202209 0.1832022219896317 -0.9403658509254456
  outer loop
  vertex 32.163818359375 16.53610038757324 1.278600692749023
  vertex 30.37944030761719 23.91672134399414 3.260360717773438
  vertex 32.61605834960938 23.91672134399414 2.578620910644531
  endloop
 endfacet

 facet normal 0.341154158115387 0.1427484452724457 -0.929105281829834
  outer loop
  vertex 42.58889770507812 16.53610038757324 5.106540679931641
  vertex 32.163818359375 16.53610038757324 1.278600692749023
  vertex 32.61605834960938 23.91672134399414 2.578620910644531
  endloop
 endfacet

 facet normal 0.341154158115387 0.1427484452724457 -0.929105281829834
  outer loop
  vertex 42.58889770507812 16.53610038757324 5.106540679931641
  vertex 32.61605834960938 23.91672134399414 2.578620910644531
  vertex 41.87355804443359 23.91672134399414 5.977819442749023
  endloop
 endfacet

 facet normal 0.7817902565002441 0.1472976505756378 -0.6058938503265381
  outer loop
  vertex 45.18833923339844 16.53610038757324 8.460620880126953
  vertex 42.58889770507812 16.53610038757324 5.106540679931641
  vertex 41.87355804443359 23.91672134399414 5.977819442749023
  endloop
 endfacet

 facet normal 0.7817902565002441 0.1472976505756378 -0.6058938503265381
  outer loop
  vertex 45.18833923339844 16.53610038757324 8.460620880126953
  vertex 41.87355804443359 23.91672134399414 5.977819442749023
  vertex 44.18186187744141 23.91672134399414 8.956300735473633
  endloop
 endfacet

 facet normal 0.9726310968399048 0.1448377519845963 -0.1816886514425278
  outer loop
  vertex 46.69878005981445 16.53610038757324 16.54644012451172
  vertex 45.18833923339844 16.53610038757324 8.460620880126953
  vertex 44.18186187744141 23.91672134399414 8.956300735473633
  endloop
 endfacet

 facet normal 0.9726310968399048 0.1448377519845963 -0.1816886514425278
  outer loop
  vertex 46.69878005981445 16.53610038757324 16.54644012451172
  vertex 44.18186187744141 23.91672134399414 8.956300735473633
  vertex 45.52313995361328 23.91672134399414 16.13644027709961
  endloop
 endfacet

 facet normal 0.8079491853713989 0.1601967364549637 0.567058265209198
  outer loop
  vertex 41.12464141845703 16.53610038757324 24.4885196685791
  vertex 46.69878005981445 16.53610038757324 16.54644012451172
  vertex 45.52313995361328 23.91672134399414 16.13644027709961
  endloop
 endfacet

 facet normal 0.8079491853713989 0.1601967364549637 0.567058265209198
  outer loop
  vertex 41.12464141845703 16.53610038757324 24.4885196685791
  vertex 45.52313995361328 23.91672134399414 16.13644027709961
  vertex 40.57329940795898 23.91672134399414 23.18907928466797
  endloop
 endfacet

 facet normal 0 -1 0
  outer loop
  vertex 32.69952011108398 19.27424049377441 40.53052139282227
  vertex 29.19623947143555 19.27424049377441 40.67816162109375
  vertex 26.97068023681641 19.27424049377441 36.85087966918945
  endloop
 endfacet

 facet normal 0 -1 0
  outer loop
  vertex 26.97068023681641 19.27424049377441 36.85087966918945
  vertex 28.33857917785645 19.27424049377441 32.00508117675781
  vertex 29.29545974731445 19.27424049377441 31.71342086791992
  endloop
 endfacet

 facet normal 0 -1 0
  outer loop
  vertex 29.29545974731445 19.27424049377441 31.71342086791992
  vertex 33.25577926635742 19.27424049377441 33.16759872436523
  vertex 34.24327850341797 19.27424049377441 34.4417610168457
  endloop
 endfacet

 facet normal 0 -1 0
  outer loop
  vertex 34.24327850341797 19.27424049377441 34.4417610168457
  vertex 34.81706237792969 19.27424049377441 37.5134391784668
  vertex 32.69952011108398 19.27424049377441 40.53052139282227
  endloop
 endfacet

 facet normal 0 -1 0
  outer loop
  vertex 32.69952011108398 19.27424049377441 40.53052139282227
  vertex 26.97068023681641 19.27424049377441 36.85087966918945
  vertex 29.29545974731445 19.27424049377441 31.71342086791992
  endloop
 endfacet

 facet normal 0 -1 0
  outer loop
  vertex 29.29545974731445 19.27424049377441 31.71342086791992
  vertex 34.24327850341797 19.27424049377441 34.4417610168457
  vertex 32.69952011108398 19.27424049377441 40.53052139282227
  endloop
 endfacet

 facet normal 0 1 0
  outer loop
  vertex 27.40286064147949 23.1785888671875 36.76934051513672
  vertex 29.3791389465332 23.1785888671875 40.16796112060547
  vertex 32.49008178710938 23.1785888671875 40.03688049316406
  endloop
 endfacet

 facet normal 0 1 0
  outer loop
  vertex 29.46723937988281 23.1785888671875 32.20727920532227
  vertex 28.61758041381836 23.1785888671875 32.46623992919922
  vertex 27.40286064147949 23.1785888671875 36.76934051513672
  endloop
 endfacet

 facet normal 0 1 0
  outer loop
  vertex 33.86091995239258 23.1785888671875 34.63005828857422
  vertex 32.9840202331543 23.1785888671875 33.49858093261719
  vertex 29.46723937988281 23.1785888671875 32.20727920532227
  endloop
 endfacet

 facet normal 0 1 0
  outer loop
  vertex 32.49008178710938 23.1785888671875 40.03688049316406
  vertex 34.37043762207031 23.1785888671875 37.35770034790039
  vertex 33.86091995239258 23.1785888671875 34.63005828857422
  endloop
 endfacet

 facet normal 0 1 0
  outer loop
  vertex 29.46723937988281 23.1785888671875 32.20727920532227
  vertex 27.40286064147949 23.1785888671875 36.76934051513672
  vertex 32.49008178710938 23.1785888671875 40.03688049316406
  endloop
 endfacet

 facet normal 0 1 0
  outer loop
  vertex 32.49008178710938 23.1785888671875 40.03688049316406
  vertex 33.86091995239258 23.1785888671875 34.63005828857422
  vertex 29.46723937988281 23.1785888671875 32.20727920532227
  endloop
 endfacet

 facet normal 0.04176197201013565 0.1275302320718765 0.990955114364624
  outer loop
  vertex 29.19623947143555 19.27424049377441 40.67816162109375
  vertex 32.69952011108398 19.27424049377441 40.53052139282227
  vertex 32.49008178710938 23.1785888671875 40.03688049316406
  endloop
 endfacet

 facet normal 0.04176197201013565 0.1275302320718765 0.990955114364624
  outer loop
  vertex 29.19623947143555 19.27424049377441 40.67816162109375
  vertex 32.49008178710938 23.1785888671875 40.03688049316406
  vertex 29.3791389465332 23.1785888671875 40.16796112060547
  endloop
 endfacet

 facet normal -0.8596355319023132 0.1055910810828209 0.4998773038387299
  outer loop
  vertex 26.97068023681641 19.27424049377441 36.85087966918945
  vertex 29.19623947143555 19.27424049377441 40.67816162109375
  vertex 29.3791389465332 23.1785888671875 40.16796112060547
  endloop
 endfacet

 facet normal -0.8596355319023132 0.1055910810828209 0.4998773038387299
  outer loop
  vertex 26.97068023681641 19.27424049377441 36.85087966918945
  vertex 29.3791389465332 23.1785888671875 40.16796112060547
  vertex 27.40286064147949 23.1785888671875 36.76934051513672
  endloop
 endfacet

 facet normal -0.9575331211090088 0.1003461703658104 -0.2702979445457458
  outer loop
  vertex 28.33857917785645 19.27424049377441 32.00508117675781
  vertex 26.97068023681641 19.27424049377441 36.85087966918945
  vertex 27.40286064147949 23.1785888671875 36.76934051513672
  endloop
 endfacet

 facet normal -0.9575331211090088 0.1003461703658104 -0.2702979445457458
  outer loop
  vertex 28.33857917785645 19.27424049377441 32.00508117675781
  vertex 27.40286064147949 23.1785888671875 36.76934051513672
  vertex 28.61758041381836 23.1785888671875 32.46623992919922
  endloop
 endfacet

 facet normal -0.2889844179153442 0.1326348483562469 -0.948101282119751
  outer loop
  vertex 29.29545974731445 19.27424049377441 31.71342086791992
  vertex 28.33857917785645 19.27424049377441 32.00508117675781
  vertex 28.61758041381836 23.1785888671875 32.46623992919922
  endloop
 endfacet

 facet normal -0.2889844179153442 0.1326348483562469 -0.948101282119751
  outer loop
  vertex 29.29545974731445 19.27424049377441 31.71342086791992
  vertex 28.61758041381836 23.1785888671875 32.46623992919922
  vertex 29.46723937988281 23.1785888671875 32.20727920532227
  endloop
 endfacet

 facet normal 0.3428514897823334 0.1030220240354538 -0.9337233901023865
  outer loop
  vertex 33.25577926635742 19.27424049377441 33.16759872436523
  vertex 29.29545974731445 19.27424049377441 31.71342086791992
  vertex 29.46723937988281 23.1785888671875 32.20727920532227
  endloop
 endfacet

 facet normal 0.3428514897823334 0.1030220240354538 -0.9337233901023865
  outer loop
  vertex 33.25577926635742 19.27424049377441 33.16759872436523
  vertex 29.46723937988281 23.1785888671875 32.20727920532227
  vertex 32.9840202331543 23.1785888671875 33.49858093261719
  endloop
 endfacet

 facet normal 0.7859256267547607 0.1063393652439117 -0.6091083884239197
  outer loop
  vertex 34.24327850341797 19.27424049377441 34.4417610168457
  vertex 33.25577926635742 19.27424049377441 33.16759872436523
  vertex 32.9840202331543 23.1785888671875 33.49858093261719
  endloop
 endfacet

 facet normal 0.7859256267547607 0.1063393652439117 -0.6091083884239197
  outer loop
  vertex 34.24327850341797 19.27424049377441 34.4417610168457
  vertex 32.9840202331543 23.1785888671875 33.49858093261719
  vertex 33.86091995239258 23.1785888671875 34.63005828857422
  endloop
 endfacet

 facet normal 0.9776103496551514 0.1045464500784874 -0.1826145052909851
  outer loop
  vertex 34.81706237792969 19.27424049377441 37.5134391784668
  vertex 34.24327850341797 19.27424049377441 34.4417610168457
  vertex 33.86091995239258 23.1785888671875 34.63005828857422
  endloop
 endfacet

 facet normal 0.9776103496551514 0.1045464500784874 -0.1826145052909851
  outer loop
  vertex 34.81706237792969 19.27424049377441 37.5134391784668
  vertex 33.86091995239258 23.1785888671875 34.63005828857422
  vertex 34.37043762207031 23.1785888671875 37.35770034790039
  endloop
 endfacet

 facet normal 0.8130165934562683 0.1157626733183861 0.5706163644790649
  outer loop
  vertex 32.69952011108398 19.27424049377441 40.53052139282227
  vertex 34.81706237792969 19.27424049377441 37.5134391784668
  vertex 34.37043762207031 23.1785888671875 37.35770034790039
  endloop
 endfacet

 facet normal 0.8130165934562683 0.1157626733183861 0.5706163644790649
  outer loop
  vertex 32.69952011108398 19.27424049377441 40.53052139282227
  vertex 34.37043762207031 23.1785888671875 37.35770034790039
  vertex 32.49008178710938 23.1785888671875 40.03688049316406
  endloop
 endfacet

 facet normal 0 -1 0
  outer loop
  vertex 21.49349975585938 17.13362121582031 24.05812072753906
  vertex 13.76161956787109 17.13362121582031 42.61978149414062
  vertex -11.52457809448242 17.13362121582031 44.89901733398438
  endloop
 endfacet

 facet normal 0 -1 0
  outer loop
  vertex -11.52457809448242 17.13362121582031 44.89901733398438
  vertex -33.38555908203125 17.13362121582031 26.03512001037598
  vertex -32.57962036132812 17.13362121582031 20.3558406829834
  endloop
 endfacet

 facet normal 0 -1 0
  outer loop
  vertex -32.57962036132812 17.13362121582031 20.3558406829834
  vertex -15.41574096679688 17.13362121582031 3.305259704589844
  vertex -6.399320602416992 17.13362121582031 1.265260696411133
  endloop
 endfacet

 facet normal 0 -1 0
  outer loop
  vertex -6.399320602416992 17.13362121582031 1.265260696411133
  vertex 10.95345973968506 17.13362121582031 5.735660552978516
  vertex 21.49349975585938 17.13362121582031 24.05812072753906
  endloop
 endfacet

 facet normal 0 -1 0
  outer loop
  vertex 21.49349975585938 17.13362121582031 24.05812072753906
  vertex -11.52457809448242 17.13362121582031 44.89901733398438
  vertex -32.57962036132812 17.13362121582031 20.3558406829834
  endloop
 endfacet

 facet normal 0 -1 0
  outer loop
  vertex -32.57962036132812 17.13362121582031 20.3558406829834
  vertex -6.399320602416992 17.13362121582031 1.265260696411133
  vertex 21.49349975585938 17.13362121582031 24.05812072753906
  endloop
 endfacet

 facet normal -1.021802745526657e-06 1 -1.133557634602766e-05
  outer loop
  vertex -10.8997802734375 25.31920051574707 42.45555877685547
  vertex 11.55432033538818 25.31920051574707 40.4315185546875
  vertex 17.67157936096191 25.31904029846191 25.74608039855957
  endloop
 endfacet

 facet normal -1.021802745526657e-06 1 -1.133557634602766e-05
  outer loop
  vertex -10.8997802734375 25.31920051574707 42.45555877685547
  vertex 17.67157936096191 25.31904029846191 25.74608039855957
  vertex 16.77379989624023 25.31904029846191 24.98810005187988
  endloop
 endfacet

 facet normal 0 1 0
  outer loop
  vertex -29.5966796875 25.31920051574707 20.66119956970215
  vertex -30.31230163574219 25.31920051574707 25.70443916320801
  vertex -10.8997802734375 25.31920051574707 42.45555877685547
  endloop
 endfacet

 facet normal 0 1 0
  outer loop
  vertex -6.348579406738281 25.31920051574707 3.708780288696289
  vertex -14.35512161254883 25.31920051574707 5.520259857177734
  vertex -29.5966796875 25.31920051574707 20.66119956970215
  endloop
 endfacet

 facet normal -3.322844349895604e-06 1 1.289836473006289e-05
  outer loop
  vertex 17.44942092895508 25.31904029846191 22.26107978820801
  vertex 9.060700416564941 25.31920051574707 7.67848014831543
  vertex -6.348579406738281 25.31920051574707 3.708780288696289
  endloop
 endfacet

 facet normal -3.322844349895604e-06 1 1.289836473006289e-05
  outer loop
  vertex 17.44942092895508 25.31904029846191 22.26107978820801
  vertex -6.348579406738281 25.31920051574707 3.708780288696289
  vertex 16.91262054443359 25.31904029846191 22.71688079833984
  endloop
 endfacet

 facet normal 3.755809075300931e-06 1 -3.222025725335698e-06
  outer loop
  vertex -29.5966796875 25.31920051574707 20.66119956970215
  vertex -10.8997802734375 25.31920051574707 42.45555877685547
  vertex 16.77379989624023 25.31904029846191 24.98810005187988
  endloop
 endfacet

 facet normal 3.755809075300931e-06 1 -3.222025725335698e-06
  outer loop
  vertex -29.5966796875 25.31920051574707 20.66119956970215
  vertex 16.77379989624023 25.31904029846191 24.98810005187988
  vertex 16.47784042358398 25.31904029846191 23.81578063964844
  endloop
 endfacet

 facet normal 3.247972472308902e-06 1 4.454182999324985e-06
  outer loop
  vertex 16.91262054443359 25.31904029846191 22.71688079833984
  vertex -6.348579406738281 25.31920051574707 3.708780288696289
  vertex -29.5966796875 25.31920051574707 20.66119956970215
  endloop
 endfacet

 facet normal 3.247972472308902e-06 1 4.454182999324985e-06
  outer loop
  vertex 16.91262054443359 25.31904029846191 22.71688079833984
  vertex -29.5966796875 25.31920051574707 20.66119956970215
  vertex 16.47784042358398 25.31904029846191 23.81578063964844
  endloop
 endfacet

 facet normal 0.7609536051750183 0.2302148640155792 0.6065894365310669
  outer loop
  vertex 19.74107933044434 23.09054946899414 23.99570083618164
  vertex 17.67157936096191 25.31904029846191 25.74608039855957
  vertex 21.49349975585938 17.13362121582031 24.05812072753906
  endloop
 endfacet

 facet normal 0.8708204627037048 0.3317989110946655 0.3627412915229797
  outer loop
  vertex 17.67157936096191 25.31904029846191 25.74608039855957
  vertex 13.76161956787109 17.13362121582031 42.61978149414062
  vertex 21.49349975585938 17.13362121582031 24.05812072753906
  endloop
 endfacet

 facet normal 0.870822548866272 0.3317950069904327 0.3627398312091827
  outer loop
  vertex 11.55432033538818 25.31920051574707 40.4315185546875
  vertex 13.76161956787109 17.13362121582031 42.61978149414062
  vertex 17.67157936096191 25.31904029846191 25.74608039855957
  endloop
 endfacet

 facet normal 0.0862107127904892 0.278931587934494 0.9564334750175476
  outer loop
  vertex -11.52457809448242 17.13362121582031 44.89901733398438
  vertex 13.76161956787109 17.13362121582031 42.61978149414062
  vertex 11.55432033538818 25.31920051574707 40.4315185546875
  endloop
 endfacet

 facet normal 0.0862107127904892 0.278931587934494 0.9564334750175476
  outer loop
  vertex -11.52457809448242 17.13362121582031 44.89901733398438
  vertex 11.55432033538818 25.31920051574707 40.4315185546875
  vertex -10.8997802734375 25.31920051574707 42.45555877685547
  endloop
 endfacet

 facet normal -0.6297774314880371 0.2659319639205933 0.7298359870910645
  outer loop
  vertex -33.38555908203125 17.13362121582031 26.03512001037598
  vertex -11.52457809448242 17.13362121582031 44.89901733398438
  vertex -10.8997802734375 25.31920051574707 42.45555877685547
  endloop
 endfacet

 facet normal -0.6297774314880371 0.2659319639205933 0.7298359870910645
  outer loop
  vertex -33.38555908203125 17.13362121582031 26.03512001037598
  vertex -10.8997802734375 25.31920051574707 42.45555877685547
  vertex -30.31230163574219 25.31920051574707 25.70443916320801
  endloop
 endfacet

 facet normal -0.9297490119934082 0.3437420725822449 -0.1319393813610077
  outer loop
  vertex -32.57962036132812 17.13362121582031 20.3558406829834
  vertex -33.38555908203125 17.13362121582031 26.03512001037598
  vertex -30.31230163574219 25.31920051574707 25.70443916320801
  endloop
 endfacet

 facet normal -0.9297490119934082 0.3437420725822449 -0.1319393813610077
  outer loop
  vertex -32.57962036132812 17.13362121582031 20.3558406829834
  vertex -30.31230163574219 25.31920051574707 25.70443916320801
  vertex -29.5966796875 25.31920051574707 20.66119956970215
  endloop
 endfacet

 facet normal -0.6780773997306824 0.2725644707679749 -0.6825830936431885
  outer loop
  vertex -15.41574096679688 17.13362121582031 3.305259704589844
  vertex -32.57962036132812 17.13362121582031 20.3558406829834
  vertex -29.5966796875 25.31920051574707 20.66119956970215
  endloop
 endfacet

 facet normal -0.6780773997306824 0.2725644707679749 -0.6825830936431885
  outer loop
  vertex -15.41574096679688 17.13362121582031 3.305259704589844
  vertex -29.5966796875 25.31920051574707 20.66119956970215
  vertex -14.35512161254883 25.31920051574707 5.520259857177734
  endloop
 endfacet

 facet normal -0.2118002623319626 0.2807548344135284 -0.9361182451248169
  outer loop
  vertex -6.399320602416992 17.13362121582031 1.265260696411133
  vertex -15.41574096679688 17.13362121582031 3.305259704589844
  vertex -14.35512161254883 25.31920051574707 5.520259857177734
  endloop
 endfacet

 facet normal -0.2118002623319626 0.2807548344135284 -0.9361182451248169
  outer loop
  vertex -6.399320602416992 17.13362121582031 1.265260696411133
  vertex -14.35512161254883 25.31920051574707 5.520259857177734
  vertex -6.348579406738281 25.31920051574707 3.708780288696289
  endloop
 endfacet

 facet normal 0.2397591173648834 0.2763342261314392 -0.9306744933128357
  outer loop
  vertex 10.95345973968506 17.13362121582031 5.735660552978516
  vertex -6.399320602416992 17.13362121582031 1.265260696411133
  vertex -6.348579406738281 25.31920051574707 3.708780288696289
  endloop
 endfacet

 facet normal 0.2397591173648834 0.2763342261314392 -0.9306744933128357
  outer loop
  vertex 10.95345973968506 17.13362121582031 5.735660552978516
  vertex -6.348579406738281 25.31920051574707 3.708780288696289
  vertex 9.060700416564941 25.31920051574707 7.67848014831543
  endloop
 endfacet

 facet normal 0.8258641362190247 0.3037237823009491 -0.4750794172286987
  outer loop
  vertex 9.060700416564941 25.31920051574707 7.67848014831543
  vertex 17.44942092895508 25.31904029846191 22.26107978820801
  vertex 10.95345973968506 17.13362121582031 5.735660552978516
  endloop
 endfacet

 facet normal 0.825863242149353 0.3037253320217133 -0.4750798642635345
  outer loop
  vertex 17.44942092895508 25.31904029846191 22.26107978820801
  vertex 21.49349975585938 17.13362121582031 24.05812072753906
  vertex 10.95345973968506 17.13362121582031 5.735660552978516
  endloop
 endfacet

 facet normal 0.7080272436141968 0.2011955678462982 -0.6769179105758667
  outer loop
  vertex 19.74107933044434 23.09054946899414 23.99570083618164
  vertex 21.49349975585938 17.13362121582031 24.05812072753906
  vertex 17.44942092895508 25.31904029846191 22.26107978820801
  endloop
 endfacet

 facet normal 0.413142204284668 0.7680227160453796 -0.489341139793396
  outer loop
  vertex 17.67157936096191 25.31904029846191 25.74608039855957
  vertex 19.74107933044434 23.09054946899414 23.99570083618164
  vertex 16.77379989624023 25.31904029846191 24.98810005187988
  endloop
 endfacet

 facet normal 0.5635513663291931 0.8137373924255371 -0.1422720551490784
  outer loop
  vertex 19.74107933044434 23.09054946899414 23.99570083618164
  vertex 16.47784042358398 25.31904029846191 23.81578063964844
  vertex 16.77379989624023 25.31904029846191 24.98810005187988
  endloop
 endfacet

 facet normal 0.4025768041610718 0.7830347418785095 0.4741188585758209
  outer loop
  vertex 17.44942092895508 25.31904029846191 22.26107978820801
  vertex 16.91262054443359 25.31904029846191 22.71688079833984
  vertex 19.74107933044434 23.09054946899414 23.99570083618164
  endloop
 endfacet

 facet normal 0.5426962375640869 0.8120205402374268 0.2147174775600433
  outer loop
  vertex 16.91262054443359 25.31904029846191 22.71688079833984
  vertex 16.47784042358398 25.31904029846191 23.81578063964844
  vertex 19.74107933044434 23.09054946899414 23.99570083618164
  endloop
 endfacet

 facet normal 0.7348418235778809 0.6220623850822449 0.2702701091766357
  outer loop
  vertex 110.9564590454102 3 45.72719955444336
  vertex 114.8634567260742 3 35.10440063476562
  vertex 104.8358612060547 15.93838024139404 32.58919906616211
  endloop
 endfacet

 facet normal 0.7348418235778809 0.6220623850822449 0.2702701091766357
  outer loop
  vertex 110.9564590454102 3 45.72719955444336
  vertex 104.8358612060547 15.93838024139404 32.58919906616211
  vertex 99.99365997314453 16.42218971252441 44.22260284423828
  endloop
 endfacet

 facet normal 0 -1 0
  outer loop
  vertex 102.1800231933594 0 43.61087799072266
  vertex 101.7581787109375 0 42.44415283203125
  vertex 105.688102722168 0 34.07270812988281
  endloop
 endfacet

 facet normal 0.935246467590332 0.1047580987215042 -0.3381417393684387
  outer loop
  vertex 99.55966186523438 18.17416000366211 43.56500244140625
  vertex 99.99365997314453 16.42218971252441 44.22260284423828
  vertex 99.08985900878906 18.17416000366211 42.26560211181641
  endloop
 endfacet

 facet normal 0.7034561634063721 0.6593348979949951 0.2653810083866119
  outer loop
  vertex 99.99365997314453 16.42218971252441 44.22260284423828
  vertex 104.8358612060547 15.93838024139404 32.58919906616211
  vertex 99.08985900878906 18.17416000366211 42.26560211181641
  endloop
 endfacet

 facet normal 0.8137439489364624 0.4380621910095215 0.38199782371521
  outer loop
  vertex 104.8358612060547 15.93838024139404 32.58919906616211
  vertex 103.4666595458984 18.17416000366211 32.94200134277344
  vertex 99.08985900878906 18.17416000366211 42.26560211181641
  endloop
 endfacet

 facet normal 0.2977578043937683 -0.9483391642570496 0.1095134019851685
  outer loop
  vertex 114.8634567260742 3 35.10440063476562
  vertex 110.9564590454102 3 45.72719955444336
  vertex 102.1800231933594 0 43.61087799072266
  endloop
 endfacet

 facet normal 0.2977578043937683 -0.9483391642570496 0.1095134019851685
  outer loop
  vertex 114.8634567260742 3 35.10440063476562
  vertex 102.1800231933594 0 43.61087799072266
  vertex 105.688102722168 0 34.07270812988281
  endloop
 endfacet

 facet normal 0.1981347054243088 -0.8817009925842285 0.428189218044281
  outer loop
  vertex 110.9564590454102 3 45.72719955444336
  vertex 47.69496154785156 3 75
  vertex 45.37773132324219 0 69.89482879638672
  endloop
 endfacet

 facet normal 0.1981347054243088 -0.8817009925842285 0.428189218044281
  outer loop
  vertex 110.9564590454102 3 45.72719955444336
  vertex 45.37773132324219 0 69.89482879638672
  vertex 102.1800231933594 0 43.61087799072266
  endloop
 endfacet

 facet normal -0.01394995115697384 -0.8592957854270935 0.5112887620925903
  outer loop
  vertex 47.69496154785156 3 75
  vertex 0.5960597991943359 3 73.71495819091797
  vertex 3.087779998779297 0 68.74099731445312
  endloop
 endfacet

 facet normal -0.01394995115697384 -0.8592957854270935 0.5112887620925903
  outer loop
  vertex 47.69496154785156 3 75
  vertex 3.087779998779297 0 68.74099731445312
  vertex 45.37773132324219 0 69.89482879638672
  endloop
 endfacet

 facet normal -0.4543752372264862 -0.8449878096580505 0.2820264399051666
  outer loop
  vertex 0.5960597991943359 3 73.71495819091797
  vertex -3.960020065307617 3 66.37461853027344
  vertex -1.003110885620117 0 62.15013122558594
  endloop
 endfacet

 facet normal -0.4543752372264862 -0.8449878096580505 0.2820264399051666
  outer loop
  vertex 0.5960597991943359 3 73.71495819091797
  vertex -1.003110885620117 0 62.15013122558594
  vertex 3.087779998779297 0 68.74099731445312
  endloop
 endfacet

 facet normal 0.3851040005683899 -0.6035482287406921 0.6981579661369324
  outer loop
  vertex -3.960020065307617 3 66.37461853027344
  vertex -9.431198120117188 3 69.39251708984375
  vertex -5.915660858154297 0 64.85989379882812
  endloop
 endfacet

 facet normal 0.3851040005683899 -0.6035482287406921 0.6981579661369324
  outer loop
  vertex -3.960020065307617 3 66.37461853027344
  vertex -5.915660858154297 0 64.85989379882812
  vertex -1.003110885620117 0 62.15013122558594
  endloop
 endfacet

 facet normal -0.4805883169174194 -0.8553577661514282 0.1933856755495071
  outer loop
  vertex -9.431198120117188 3 69.39251708984375
  vertex -11.39772033691406 3 64.50546264648438
  vertex -7.681388854980469 0 60.47182083129883
  endloop
 endfacet

 facet normal -0.4805883169174194 -0.8553577661514282 0.1933856755495071
  outer loop
  vertex -9.431198120117188 3 69.39251708984375
  vertex -7.681388854980469 0 60.47182083129883
  vertex -5.915660858154297 0 64.85989379882812
  endloop
 endfacet

 facet normal 0.1113353371620178 -0.7455544471740723 0.6570791006088257
  outer loop
  vertex -11.39772033691406 3 64.50546264648438
  vertex -24.26765823364258 3 66.68614196777344
  vertex -19.23725891113281 0 62.42984008789062
  endloop
 endfacet

 facet normal 0.1113353371620178 -0.7455544471740723 0.6570791006088257
  outer loop
  vertex -11.39772033691406 3 64.50546264648438
  vertex -19.23725891113281 0 62.42984008789062
  vertex -7.681388854980469 0 60.47182083129883
  endloop
 endfacet

 facet normal -0.2941747605800629 -0.9095910787582397 0.2934371829032898
  outer loop
  vertex -24.26765823364258 3 66.68614196777344
  vertex -32.01688003540039 3 58.91743850708008
  vertex -26.19525909423828 0 55.45434951782227
  endloop
 endfacet

 facet normal -0.2941747605800629 -0.9095910787582397 0.2934371829032898
  outer loop
  vertex -24.26765823364258 3 66.68614196777344
  vertex -26.19525909423828 0 55.45434951782227
  vertex -19.23725891113281 0 62.42984008789062
  endloop
 endfacet

 facet normal 0.1848610490560532 -0.5674864053726196 0.8023625612258911
  outer loop
  vertex -32.01688003540039 3 58.91743850708008
  vertex -35.98883819580078 3 59.83256149291992
  vertex -29.76166915893555 0 56.27603912353516
  endloop
 endfacet

 facet normal 0.1848610490560532 -0.5674864053726196 0.8023625612258911
  outer loop
  vertex -32.01688003540039 3 58.91743850708008
  vertex -29.76166915893555 0 56.27603912353516
  vertex -26.19525909423828 0 55.45434951782227
  endloop
 endfacet

 facet normal -0.4181762635707855 -0.9077474474906921 0.0335126556456089
  outer loop
  vertex -35.98883819580078 3 59.83256149291992
  vertex -36.43666076660156 3 54.24456024169922
  vertex -30.16376876831055 0 51.25859069824219
  endloop
 endfacet

 facet normal -0.4181762635707855 -0.9077474474906921 0.0335126556456089
  outer loop
  vertex -35.98883819580078 3 59.83256149291992
  vertex -30.16376876831055 0 51.25859069824219
  vertex -29.76166915893555 0 56.27603912353516
  endloop
 endfacet

 facet normal -0.2622308135032654 -0.8985589742660522 0.3518903255462646
  outer loop
  vertex -36.43666076660156 3 54.24456024169922
  vertex -64.86345672607422 3 33.06074142456055
  vertex -55.68810272216797 0 32.23770904541016
  endloop
 endfacet

 facet normal -0.2622308135032654 -0.8985589742660522 0.3518903255462646
  outer loop
  vertex -36.43666076660156 3 54.24456024169922
  vertex -55.68810272216797 0 32.23770904541016
  vertex -30.16376876831055 0 51.25859069824219
  endloop
 endfacet

 facet normal -0.320257842540741 -0.9299787282943726 -0.180484339594841
  outer loop
  vertex -64.86345672607422 3 33.06074142456055
  vertex -44.14694213867188 3 -3.699380874633789
  vertex -37.08681106567383 0 -0.7690792083740234
  endloop
 endfacet

 facet normal -0.320257842540741 -0.9299787282943726 -0.180484339594841
  outer loop
  vertex -64.86345672607422 3 33.06074142456055
  vertex -37.08681106567383 0 -0.7690792083740234
  vertex -55.68810272216797 0 32.23770904541016
  endloop
 endfacet

 facet normal -0.208475336432457 -0.8889512419700623 -0.4078036546707153
  outer loop
  vertex -44.14694213867188 3 -3.699380874633789
  vertex -2.480279922485352 3 -25
  vertex 0.3255500793457031 0 -19.89482879638672
  endloop
 endfacet

 facet normal -0.208475336432457 -0.8889512419700623 -0.4078036546707153
  outer loop
  vertex -44.14694213867188 3 -3.699380874633789
  vertex 0.3255500793457031 0 -19.89482879638672
  vertex -37.08681106567383 0 -0.7690792083740234
  endloop
 endfacet

 facet normal 0.1236847341060638 -0.8243519067764282 -0.5524002313613892
  outer loop
  vertex -2.480279922485352 3 -25
  vertex 46.39044189453125 3 -14.05764007568359
  vertex 44.20639801025391 0 -10.06972885131836
  endloop
 endfacet

 facet normal 0.1236847341060638 -0.8243519067764282 -0.5524002313613892
  outer loop
  vertex -2.480279922485352 3 -25
  vertex 44.20639801025391 0 -10.06972885131836
  vertex 0.3255500793457031 0 -19.89482879638672
  endloop
 endfacet

 facet normal -0.02796369604766369 -0.7913975119590759 -0.610662043094635
  outer loop
  vertex 46.39044189453125 3 -14.05764007568359
  vertex 80.40525817871094 3 -15.61526107788086
  vertex 74.74819946289062 0 -11.46831130981445
  endloop
 endfacet

 facet normal -0.02796369604766369 -0.7913975119590759 -0.610662043094635
  outer loop
  vertex 46.39044189453125 3 -14.05764007568359
  vertex 74.74819946289062 0 -11.46831130981445
  vertex 44.20639801025391 0 -10.06972885131836
  endloop
 endfacet

 facet normal 0.1420626938343048 -0.8838774561882019 -0.4456219375133514
  outer loop
  vertex 80.40525817871094 3 -15.61526107788086
  vertex 93.35308074951172 3 -11.48754119873047
  vertex 86.37400054931641 0 -7.762039184570312
  endloop
 endfacet

 facet normal 0.1420626938343048 -0.8838774561882019 -0.4456219375133514
  outer loop
  vertex 80.40525817871094 3 -15.61526107788086
  vertex 86.37400054931641 0 -7.762039184570312
  vertex 74.74819946289062 0 -11.46831130981445
  endloop
 endfacet

 facet normal 0.3223910927772522 -0.9348318576812744 -0.1488402187824249
  outer loop
  vertex 93.35308074951172 3 -11.48754119873047
  vertex 114.8634567260742 3 35.10440063476562
  vertex 105.688102722168 0 34.07270812988281
  endloop
 endfacet

 facet normal 0.3223910927772522 -0.9348318576812744 -0.1488402187824249
  outer loop
  vertex 93.35308074951172 3 -11.48754119873047
  vertex 105.688102722168 0 34.07270812988281
  vertex 86.37400054931641 0 -7.762039184570312
  endloop
 endfacet

endsolidAssimpScene
